<svg width="86" height="86" viewBox="0 0 86 86" fill="none" xmlns="http://www.w3.org/2000/svg">
<path d="M9.36821 47.5742C9.36821 45.3919 9.96565 44.2559 11.1017 43.3889L46.0196 57.7983C44.2558 63.1795 45.7253 68.0343 47.4844 69.3976L11.8196 53.1048C10.8081 52.3132 9.36821 50.3545 9.36821 47.5742Z" fill="white"/>
<path fill-rule="evenodd" clip-rule="evenodd" d="M10.2864 42.3207C10.6666 42.0306 11.1722 41.9644 11.6142 42.1468L46.5322 56.5562C47.1822 56.8245 47.5155 57.5486 47.2965 58.2169C46.4855 60.691 46.4249 63.0249 46.7538 64.8687C47.0955 66.7851 47.8105 67.9503 48.3076 68.3355C48.8468 68.7535 48.9873 69.5092 48.6343 70.093C48.2812 70.6768 47.5466 70.9034 46.9261 70.6199L11.2612 54.3271C11.1652 54.2832 11.0746 54.2281 10.9914 54.163C9.69608 53.1493 8.02446 50.8178 8.02446 47.5742C8.02446 46.3676 8.18849 45.3386 8.57808 44.4492C8.97656 43.5395 9.57111 42.8666 10.2864 42.3207ZM11.8196 53.1048C10.8081 52.3132 9.36821 50.3545 9.36821 47.5742C9.36821 45.3919 9.96565 44.2559 11.1017 43.3889L46.0196 57.7984C44.7937 61.5383 45.1297 65.0241 46.0392 67.2601C46.4383 68.2413 46.9479 68.9818 47.4844 69.3976L11.8196 53.1048Z" fill="black"/>
<path d="M76.6318 29.6642L42.8563 16.6025L10.9279 43.5174L47.606 58.9538L76.6318 29.6642Z" fill="black"/>
<path fill-rule="evenodd" clip-rule="evenodd" d="M41.9902 15.5751C42.3654 15.2588 42.8832 15.1723 43.3409 15.3493L77.1164 28.4109C77.5393 28.5744 77.8512 28.9401 77.9459 29.3835C78.0406 29.8268 77.9053 30.288 77.5862 30.61L48.5604 59.8997C48.1743 60.2893 47.5902 60.4051 47.0847 60.1924L10.4066 44.7559C9.97553 44.5745 9.66979 44.182 9.59942 43.7196C9.52906 43.2572 9.70419 42.7915 10.0618 42.49L41.9902 15.5751ZM42.8563 16.6026L76.6318 29.6642L47.606 58.9539L10.9279 43.5174L42.8563 16.6026Z" fill="black"/>
<path d="M57.3199 32.7313L42.5518 26.9316L39.7169 29.364L54.3603 35.4966L57.3199 32.7313Z" fill="white"/>
<path d="M76.6022 39.6816C73.3735 37.0509 73.9714 32.8356 76.4527 29.7266L46.2584 58.2465C44.4051 62.7008 45.9091 67.0075 47.5143 69.3824L76.6022 39.6816Z" fill="white"/>
<path fill-rule="evenodd" clip-rule="evenodd" d="M77.3625 28.7376C77.8818 29.2153 77.9431 30.0133 77.503 30.5648C76.4025 31.9437 75.7743 33.5037 75.7293 34.926C75.6857 36.3028 76.1798 37.6041 77.451 38.6399C77.7438 38.8785 77.9227 39.2292 77.9438 39.6063C77.965 39.9834 77.8265 40.352 77.5622 40.6218L48.4743 70.3226C48.192 70.6109 47.795 70.757 47.3931 70.7206C46.9912 70.6843 46.627 70.4692 46.401 70.1349C44.6363 67.5241 42.935 62.7359 45.0178 57.7303C45.0903 57.5561 45.1986 57.3991 45.3357 57.2696L75.53 28.7497C76.043 28.2652 76.8432 28.2599 77.3625 28.7376ZM76.4527 29.7266L46.2584 58.2465C44.6842 62.03 45.5322 65.707 46.8071 68.184C47.0331 68.6232 47.2725 69.0247 47.5143 69.3824L76.6022 39.6816C76.2707 39.4115 75.9796 39.1247 75.7267 38.8242C74.3848 37.2294 74.1192 35.2465 74.6156 33.3102C74.937 32.0568 75.5778 30.8229 76.4527 29.7266Z" fill="black"/>
<path fill-rule="evenodd" clip-rule="evenodd" d="M74.7233 39.3342C74.9814 39.6008 74.9744 40.0262 74.7078 40.2843L54.14 60.1944C53.8734 60.4525 53.4481 60.4455 53.19 60.1789C52.9319 59.9123 52.9388 59.487 53.2054 59.2289L73.7732 39.3188C74.0398 39.0607 74.4652 39.0676 74.7233 39.3342Z" fill="black"/>
<path fill-rule="evenodd" clip-rule="evenodd" d="M73.5372 37.6704C73.7896 37.9424 73.7737 38.3675 73.5017 38.6199L60.2283 50.9367C59.9563 51.1891 59.5312 51.1732 59.2788 50.9012C59.0264 50.6292 59.0423 50.2041 59.3143 49.9517L72.5877 37.6349C72.8597 37.3825 73.2848 37.3984 73.5372 37.6704Z" fill="black"/>
<path fill-rule="evenodd" clip-rule="evenodd" d="M16.637 51.3098C16.7823 50.9684 17.1769 50.8094 17.5184 50.9547L30.3187 56.4029C30.6602 56.5482 30.8191 56.9428 30.6738 57.2843C30.5285 57.6257 30.1339 57.7847 29.7925 57.6393L16.9921 52.1911C16.6507 52.0458 16.4917 51.6512 16.637 51.3098Z" fill="black"/>
</svg>
