<svg width="86" height="86" viewBox="0 0 86 86" fill="none" xmlns="http://www.w3.org/2000/svg">
<path d="M29.9985 54.6685C30.8246 53.8423 28.7636 50.4418 25.3951 47.0732C22.0266 43.7047 18.6261 41.6437 17.7999 42.4699C16.9737 43.2961 19.0347 46.6966 22.4032 50.0651C25.7718 53.4337 29.1723 55.4947 29.9985 54.6685Z" fill="white"/>
<path d="M29.9985 54.6685C30.8246 53.8423 28.7636 50.4418 25.3951 47.0732C22.0266 43.7047 18.6261 41.6437 17.7999 42.4699C16.9737 43.2961 19.0347 46.6966 22.4032 50.0651C25.7718 53.4337 29.1723 55.4947 29.9985 54.6685Z" stroke="#140735" stroke-width="0.5" stroke-miterlimit="10" stroke-linecap="round" stroke-linejoin="round"/>
<path d="M48.4954 36.0862C50.9292 34.5124 53.707 31.9926 55.4184 29.9372C59.3228 25.2502 57.3878 23.4012 56.8546 23.0314C55.8828 22.352 53.6554 22.868 51.8236 24.7514C52.4514 24.0634 53.8876 22.3348 54.2488 21.7242C55.6506 19.3936 55.126 17.2436 54.0682 16.6072C52.9158 15.9106 50.783 15.816 47.8332 19.8666C44.677 24.201 39.5772 28.028 38.8548 28.5526C38.8548 28.5526 38.8462 28.5526 38.8462 28.544C41.8734 25.964 46.913 19.7978 45.5628 15.9364C44.849 13.8982 41.5122 13.494 39.2848 17.8112C37.4702 21.32 35.4062 24.3816 30.7622 28.802C30.2118 27.4174 31.1578 24.6482 31.0288 22.2574C30.7622 17.1318 27.2276 16.762 25.3528 17.4242C22.8502 18.3014 26.6084 24.1666 23.8994 29.3868C22.4202 32.242 19.5134 36.3786 22.8072 41.2548L12.4184 48.8744C14.2932 53.7162 17.8278 57.1648 22.4202 59.7362L31.4846 50.99C34.701 53.0024 40.7554 48.3584 46.3024 43.1038C50.525 40.8334 51.8408 40.1798 54.3692 38.9156C56.201 38.004 58.6778 36.843 58.566 35.4584C58.3338 32.5258 51.987 33.919 48.4954 36.0862Z" fill="white"/>
<path d="M29.0594 23.4879C27.7264 29.6455 30.7622 28.8027 30.7622 28.8027C30.7622 28.8027 30.4956 28.7855 30.7622 25.5175C31.0288 22.2495 31.3986 18.5773 27.993 17.3303C27.5716 18.9127 29.8936 19.6265 29.0594 23.4879Z" fill="#140735"/>
<path d="M54.3004 16.7803C54.5412 17.2791 54.6186 18.2853 53.3286 20.6159C51.8236 23.3507 43.8858 31.4003 42.0024 31.5895C43.3956 33.2063 42.8624 32.5871 42.8624 32.5871C42.8624 32.5871 53.2082 25.6899 55.0658 19.4721C55.212 18.2595 54.868 17.2791 54.3004 16.7803Z" fill="#140735"/>
<path d="M56.9148 23.083C57.0782 23.857 56.8804 25.1556 55.771 26.6778C51.127 33.0676 45.2274 36.3786 45.2274 36.3786C45.4252 36.7656 45.709 37.101 46.01 37.6944C50.181 35.2004 55.255 30.135 55.4098 29.9458C59.1766 25.4308 57.5168 23.5474 56.9148 23.083Z" fill="#140735"/>
<path d="M45.0382 15.1025C41.9938 24.7431 36.7392 27.8133 36.7392 27.8133C37.1176 27.5381 37.7712 28.0455 38.8548 28.5529C42.8538 25.0957 44.6168 21.3891 45.6832 18.4479C45.8466 17.5535 45.8294 16.6935 45.5628 15.9367C45.4596 15.6099 45.279 15.3261 45.0382 15.1025Z" fill="#140735"/>
<path d="M58.5746 35.4599C58.4972 34.5483 57.8264 34.0495 56.8374 33.8689C57.3104 34.5999 57.4136 35.5717 56.3902 36.0877C54.2058 37.1799 49.0544 40.3017 47.1882 40.2501C46.6378 40.2329 46.096 40.4135 45.6832 40.7833C40.248 45.6251 33.54 50.0111 30.4956 48.1019L21.3108 55.8849C17.6558 53.8381 17.845 57.1577 22.4288 59.7291L31.4932 50.9829C34.7096 52.9953 40.764 48.3513 46.311 43.0967C50.5336 40.8263 51.8494 40.1727 54.3778 38.9085C56.2096 37.9969 58.6864 36.8445 58.5746 35.4599Z" fill="#140735"/>
<path d="M51.8236 24.7502C51.8236 24.7502 47.3344 29.678 42.8624 32.5848" stroke="#140735" stroke-width="0.5" stroke-miterlimit="10" stroke-linecap="round" stroke-linejoin="round"/>
<path d="M30.7622 28.8025C32.4908 30.4451 34.1678 33.4293 33.3164 36.3791" stroke="#140735" stroke-width="0.5" stroke-miterlimit="10" stroke-linecap="round" stroke-linejoin="round"/>
<path d="M36.7392 27.8135C36.7392 27.8135 42.0712 28.8025 46.5604 39.0451" stroke="#140735" stroke-width="0.5" stroke-miterlimit="10" stroke-linecap="round" stroke-linejoin="round"/>
<path d="M48.4954 36.0862C50.9292 34.5124 53.707 31.9926 55.4184 29.9372C59.3228 25.2502 57.3878 23.4012 56.8546 23.0314C55.8828 22.352 53.6554 22.868 51.8236 24.7514C52.4514 24.0634 53.8876 22.3348 54.2488 21.7242C55.6506 19.3936 55.126 17.2436 54.0682 16.6072C52.9158 15.9106 50.783 15.816 47.8332 19.8666C44.677 24.201 39.5772 28.028 38.8548 28.5526C38.8548 28.5526 38.8462 28.5526 38.8462 28.544C41.8734 25.964 46.913 19.7978 45.5628 15.9364C44.849 13.8982 41.5122 13.494 39.2848 17.8112C37.4702 21.32 35.4062 24.3816 30.7622 28.802C30.2118 27.4174 31.1578 24.6482 31.0288 22.2574C30.7622 17.1318 27.2276 16.762 25.3528 17.4242C22.8502 18.3014 26.6084 24.1666 23.8994 29.3868C22.4202 32.242 19.5134 36.3786 22.8072 41.2548L12.4184 48.8744C14.2932 53.7162 17.8278 57.1648 22.4202 59.7362L31.4846 50.99C36.0856 52.194 40.7554 48.3584 46.3024 43.1038C50.525 40.8334 51.8408 40.1798 54.3692 38.9156C56.201 38.004 58.6778 36.843 58.566 35.4584C58.3338 32.5258 51.987 33.919 48.4954 36.0862Z" stroke="#140735" stroke-width="0.5" stroke-miterlimit="10" stroke-linecap="round" stroke-linejoin="round"/>
<path d="M46.0186 37.6855L48.4954 36.0859" stroke="#140735" stroke-width="0.5" stroke-miterlimit="10" stroke-linecap="round" stroke-linejoin="round"/>
<path d="M17.7934 42.4668C16.3314 45.2704 27.9758 56.4074 29.9968 54.6702C29.9968 54.6702 24.5702 59.7528 23.1684 61.1116C19.5392 61.5072 10.3974 54.0682 10.6468 47.8504L17.7934 42.4668Z" fill="white"/>
<path d="M25.5162 52.8389C23.6844 54.5589 19.7886 58.2139 18.5416 59.4265C20.3218 60.5789 22.016 61.2411 23.1684 61.1121C24.5616 59.7533 29.9968 54.6707 29.9968 54.6707C29.3088 55.2555 27.5286 54.3697 25.5162 52.8389Z" fill="#140735"/>
<path d="M17.7934 42.4668C16.3314 45.2704 27.9758 56.4074 29.9968 54.6702C29.9968 54.6702 24.5702 59.7528 23.1684 61.1116C19.5392 61.5072 10.3974 54.0682 10.6468 47.8504L17.7934 42.4668Z" stroke="#140735" stroke-width="0.5" stroke-miterlimit="10" stroke-linecap="round" stroke-linejoin="round"/>
<path d="M32.938 30.5902C35.5741 30.5902 37.711 28.4533 37.711 25.8172C37.711 23.1811 35.5741 21.0442 32.938 21.0442C30.3019 21.0442 28.165 23.1811 28.165 25.8172C28.165 28.4533 30.3019 30.5902 32.938 30.5902Z" fill="white"/>
<path d="M34.8988 21.4661C35.4406 22.1885 35.7588 23.0915 35.7588 24.0633C35.7588 26.4713 33.8066 28.4235 31.3986 28.4235C30.2204 28.4235 29.1626 27.9591 28.3714 27.2023C28.9648 29.163 30.788 30.5906 32.938 30.5906C35.5782 30.5906 37.711 28.4493 37.711 25.8177C37.711 23.8827 36.5586 22.2143 34.8988 21.4661Z" fill="white"/>
<path d="M32.938 30.5902C35.5741 30.5902 37.711 28.4533 37.711 25.8172C37.711 23.1811 35.5741 21.0442 32.938 21.0442C30.3019 21.0442 28.165 23.1811 28.165 25.8172C28.165 28.4533 30.3019 30.5902 32.938 30.5902Z" stroke="#140735" stroke-width="0.5" stroke-miterlimit="10" stroke-linecap="round" stroke-linejoin="round"/>
<path d="M30.5128 28.2418C29.8936 27.6226 29.5066 26.7626 29.5066 25.8167" stroke="white" stroke-width="0.5" stroke-miterlimit="10" stroke-linecap="round" stroke-linejoin="round"/>
<path d="M37.2552 40.6881C40.6179 40.6881 43.344 37.9621 43.344 34.5993C43.344 31.2365 40.6179 28.5105 37.2552 28.5105C33.8924 28.5105 31.1664 31.2365 31.1664 34.5993C31.1664 37.9621 33.8924 40.6881 37.2552 40.6881Z" fill="white"/>
<path d="M39.7578 29.0522C40.4458 29.981 40.85 31.1248 40.85 32.3632C40.85 35.4334 38.356 37.9274 35.2858 37.9274C33.7894 37.9274 32.4306 37.334 31.433 36.3708C32.1898 38.8648 34.5118 40.6881 37.2552 40.6881C40.6178 40.6881 43.344 37.9618 43.344 34.5992C43.344 32.131 41.8734 30.0068 39.7578 29.0522Z" fill="white"/>
<path d="M37.2552 40.6881C40.6179 40.6881 43.344 37.9621 43.344 34.5993C43.344 31.2365 40.6179 28.5105 37.2552 28.5105C33.8924 28.5105 31.1664 31.2365 31.1664 34.5993C31.1664 37.9621 33.8924 40.6881 37.2552 40.6881Z" stroke="#140735" stroke-width="0.5" stroke-miterlimit="10" stroke-linecap="round" stroke-linejoin="round"/>
<path d="M34.1678 37.6868C33.3766 36.8956 32.8864 35.8034 32.8864 34.5994" stroke="white" stroke-width="0.5" stroke-miterlimit="10" stroke-linecap="round" stroke-linejoin="round"/>
<path d="M43.7826 28.3378C45.9769 28.3378 47.7558 26.5589 47.7558 24.3646C47.7558 22.1702 45.9769 20.3914 43.7826 20.3914C41.5883 20.3914 39.8094 22.1702 39.8094 24.3646C39.8094 26.5589 41.5883 28.3378 43.7826 28.3378Z" fill="white"/>
<path d="M45.408 20.7441C45.8552 21.3461 46.1218 22.0943 46.1218 22.9113C46.1218 24.9151 44.4964 26.5406 42.4926 26.5406C41.5122 26.5406 40.6264 26.1535 39.9728 25.5257C40.4716 27.1598 41.9852 28.3466 43.774 28.3466C45.967 28.3466 47.7472 26.5664 47.7472 24.3733C47.7558 22.7565 46.7926 21.3633 45.408 20.7441Z" fill="white"/>
<path d="M43.7826 28.3378C45.9769 28.3378 47.7558 26.5589 47.7558 24.3646C47.7558 22.1702 45.9769 20.3914 43.7826 20.3914C41.5883 20.3914 39.8094 22.1702 39.8094 24.3646C39.8094 26.5589 41.5883 28.3378 43.7826 28.3378Z" stroke="#140735" stroke-width="0.5" stroke-miterlimit="10" stroke-linecap="round" stroke-linejoin="round"/>
<path d="M41.7617 26.3847C41.2457 25.8687 40.9275 25.1549 40.9275 24.3723" stroke="white" stroke-width="0.5" stroke-miterlimit="10" stroke-linecap="round" stroke-linejoin="round"/>
<path d="M26.8492 43.0525C28.806 43.0525 30.3924 41.4661 30.3924 39.5093C30.3924 37.5524 28.806 35.9661 26.8492 35.9661C24.8923 35.9661 23.306 37.5524 23.306 39.5093C23.306 41.4661 24.8923 43.0525 26.8492 43.0525Z" fill="white"/>
<path d="M28.3112 36.2749C28.7154 36.8167 28.9476 37.4789 28.9476 38.2013C28.9476 39.9901 27.4942 41.4349 25.714 41.4349C24.8454 41.4349 24.0542 41.0909 23.4694 40.5319C23.908 41.9853 25.2582 43.0431 26.8578 43.0431C28.8186 43.0431 30.401 41.4607 30.401 39.4999C30.3924 38.0723 29.541 36.8339 28.3112 36.2749Z" fill="white"/>
<path d="M26.8492 43.0525C28.806 43.0525 30.3924 41.4661 30.3924 39.5093C30.3924 37.5524 28.806 35.9661 26.8492 35.9661C24.8923 35.9661 23.306 37.5524 23.306 39.5093C23.306 41.4661 24.8923 43.0525 26.8492 43.0525Z" stroke="#140735" stroke-width="0.5" stroke-miterlimit="10" stroke-linecap="round" stroke-linejoin="round"/>
<path d="M25.0604 41.3077C24.596 40.8433 24.3122 40.2155 24.3122 39.5103" stroke="white" stroke-width="0.5" stroke-miterlimit="10" stroke-linecap="round" stroke-linejoin="round"/>
<path d="M18.3782 32.1978C19.7176 32.1978 20.8034 31.112 20.8034 29.7726C20.8034 28.4332 19.7176 27.3474 18.3782 27.3474C17.0388 27.3474 15.953 28.4332 15.953 29.7726C15.953 31.112 17.0388 32.1978 18.3782 32.1978Z" fill="white"/>
<path d="M19.3672 27.5615C19.6424 27.9313 19.8058 28.3871 19.8058 28.8773C19.8058 30.0985 18.8168 31.0875 17.5956 31.0875C17.0022 31.0875 16.4604 30.8553 16.0648 30.4683C16.3658 31.4659 17.286 32.1883 18.3782 32.1883C19.7198 32.1883 20.8034 31.1047 20.8034 29.7631C20.7948 28.7913 20.21 27.9399 19.3672 27.5615Z" fill="white"/>
<path d="M18.3782 32.1978C19.7176 32.1978 20.8034 31.112 20.8034 29.7726C20.8034 28.4332 19.7176 27.3474 18.3782 27.3474C17.0388 27.3474 15.953 28.4332 15.953 29.7726C15.953 31.112 17.0388 32.1978 18.3782 32.1978Z" stroke="#140735" stroke-width="0.5" stroke-miterlimit="10" stroke-linecap="round" stroke-linejoin="round"/>
<path d="M17.1484 31.0023C16.8302 30.6841 16.641 30.2541 16.641 29.7725" stroke="white" stroke-width="0.5" stroke-miterlimit="10" stroke-linecap="round" stroke-linejoin="round"/>
<path d="M19.3156 18.8356C19.9853 18.8356 20.5282 18.2927 20.5282 17.623C20.5282 16.9533 19.9853 16.4104 19.3156 16.4104C18.6459 16.4104 18.103 16.9533 18.103 17.623C18.103 18.2927 18.6459 18.8356 19.3156 18.8356Z" fill="white"/>
<path d="M19.8144 16.5132C19.952 16.6938 20.0294 16.926 20.0294 17.1754C20.0294 17.786 19.5306 18.2848 18.92 18.2848C18.619 18.2848 18.3524 18.1644 18.1546 17.9752C18.3094 18.474 18.7652 18.8352 19.3156 18.8352C19.9864 18.8352 20.5282 18.2934 20.5282 17.6226C20.5282 17.1324 20.2272 16.7024 19.8144 16.5132Z" fill="white"/>
<path d="M19.3156 18.8356C19.9853 18.8356 20.5282 18.2927 20.5282 17.623C20.5282 16.9533 19.9853 16.4104 19.3156 16.4104C18.6459 16.4104 18.103 16.9533 18.103 17.623C18.103 18.2927 18.6459 18.8356 19.3156 18.8356Z" stroke="#140735" stroke-width="0.5" stroke-miterlimit="10" stroke-linecap="round" stroke-linejoin="round"/>
<path d="M55.169 20.9838C56.6081 20.9838 57.7748 19.8172 57.7748 18.378C57.7748 16.9389 56.6081 15.7722 55.169 15.7722C53.7299 15.7722 52.5632 16.9389 52.5632 18.378C52.5632 19.8172 53.7299 20.9838 55.169 20.9838Z" fill="white"/>
<path d="M56.244 16.0032C56.5364 16.3988 56.717 16.889 56.717 17.4222C56.717 18.738 55.6506 19.8044 54.3348 19.8044C53.6898 19.8044 53.1136 19.5464 52.6836 19.1422C53.0104 20.2086 53.9994 20.9912 55.1776 20.9912C56.6224 20.9912 57.7834 19.8216 57.7834 18.3854C57.7748 17.319 57.147 16.4074 56.244 16.0032Z" fill="white"/>
<path d="M55.169 20.9838C56.6081 20.9838 57.7748 19.8172 57.7748 18.378C57.7748 16.9389 56.6081 15.7722 55.169 15.7722C53.7299 15.7722 52.5632 16.9389 52.5632 18.378C52.5632 19.8172 53.7299 20.9838 55.169 20.9838Z" stroke="#140735" stroke-width="0.5" stroke-miterlimit="10" stroke-linecap="round" stroke-linejoin="round"/>
<path d="M53.8446 19.7023C53.5092 19.3669 53.2942 18.8939 53.2942 18.3779" stroke="white" stroke-width="0.5" stroke-miterlimit="10" stroke-linecap="round" stroke-linejoin="round"/>
<path d="M47.4978 55.8153C48.481 55.8153 49.278 55.0182 49.278 54.0351C49.278 53.0519 48.481 52.2549 47.4978 52.2549C46.5146 52.2549 45.7176 53.0519 45.7176 54.0351C45.7176 55.0182 46.5146 55.8153 47.4978 55.8153Z" fill="white"/>
<path d="M48.2288 52.4082C48.4266 52.6834 48.547 53.0188 48.547 53.38C48.547 54.283 47.816 55.0054 46.9215 55.0054C46.4829 55.0054 46.0873 54.8334 45.7949 54.5496C46.0185 55.2806 46.6979 55.8138 47.4978 55.8138C48.4868 55.8138 49.278 55.014 49.278 54.0336C49.278 53.3112 48.848 52.6834 48.2288 52.4082Z" fill="white"/>
<path d="M47.4978 55.8153C48.481 55.8153 49.278 55.0182 49.278 54.0351C49.278 53.0519 48.481 52.2549 47.4978 52.2549C46.5146 52.2549 45.7176 53.0519 45.7176 54.0351C45.7176 55.0182 46.5146 55.8153 47.4978 55.8153Z" stroke="#140735" stroke-width="0.5" stroke-miterlimit="10" stroke-linecap="round" stroke-linejoin="round"/>
<path d="M46.5948 54.9384C46.3626 54.7062 46.2164 54.388 46.2164 54.0354" stroke="white" stroke-width="0.5" stroke-miterlimit="10" stroke-linecap="round" stroke-linejoin="round"/>
<path d="M38.8462 20.4084C40.2854 20.4084 41.452 19.2417 41.452 17.8026C41.452 16.3634 40.2854 15.1968 38.8462 15.1968C37.4071 15.1968 36.2404 16.3634 36.2404 17.8026C36.2404 19.2417 37.4071 20.4084 38.8462 20.4084Z" fill="white"/>
<path d="M39.9212 15.4214C40.2136 15.817 40.3942 16.3072 40.3942 16.8404C40.3942 18.1562 39.3278 19.2226 38.012 19.2226C37.367 19.2226 36.7908 18.9646 36.3608 18.5604C36.6876 19.6268 37.6766 20.4094 38.8548 20.4094C40.2996 20.4094 41.4606 19.2398 41.4606 17.8036C41.452 16.7458 40.8242 15.8342 39.9212 15.4214Z" fill="white"/>
<path d="M38.8462 20.4084C40.2854 20.4084 41.452 19.2417 41.452 17.8026C41.452 16.3634 40.2854 15.1968 38.8462 15.1968C37.4071 15.1968 36.2404 16.3634 36.2404 17.8026C36.2404 19.2417 37.4071 20.4084 38.8462 20.4084Z" stroke="#140735" stroke-width="0.5" stroke-miterlimit="10" stroke-linecap="round" stroke-linejoin="round"/>
<path d="M37.5218 18.8345C37.2552 18.5679 37.0918 18.2067 37.0918 17.8025" stroke="white" stroke-width="0.5" stroke-miterlimit="10" stroke-linecap="round" stroke-linejoin="round"/>
<path d="M41.6584 49.3472C46.1848 49.3472 49.8542 45.6778 49.8542 41.1514C49.8542 36.625 46.1848 32.9556 41.6584 32.9556C37.132 32.9556 33.4626 36.625 33.4626 41.1514C33.4626 45.6778 37.132 49.3472 41.6584 49.3472Z" fill="white"/>
<path d="M45.0296 33.6777C45.9584 34.9247 46.5088 36.4727 46.5088 38.1411C46.5088 42.2777 43.1548 45.6317 39.0182 45.6317C36.9972 45.6317 35.174 44.8319 33.8238 43.5333C34.8472 46.8959 37.969 49.3469 41.667 49.3469C46.1992 49.3469 49.8628 45.6747 49.8628 41.1511C49.8628 37.8229 47.8762 34.9591 45.0296 33.6777Z" fill="white"/>
<path d="M41.6584 49.3472C46.1848 49.3472 49.8542 45.6778 49.8542 41.1514C49.8542 36.625 46.1848 32.9556 41.6584 32.9556C37.132 32.9556 33.4626 36.625 33.4626 41.1514C33.4626 45.6778 37.132 49.3472 41.6584 49.3472Z" stroke="#140735" stroke-width="0.5" stroke-miterlimit="10" stroke-linecap="round" stroke-linejoin="round"/>
<path d="M37.5046 45.3125C36.4382 44.2461 35.776 42.7755 35.776 41.1587" stroke="white" stroke-width="0.5" stroke-miterlimit="10" stroke-linecap="round" stroke-linejoin="round"/>
<path d="M51.8838 44.1101C54.2539 44.1101 56.1752 42.1888 56.1752 39.8187C56.1752 37.4487 54.2539 35.5273 51.8838 35.5273C49.5138 35.5273 47.5924 37.4487 47.5924 39.8187C47.5924 42.1888 49.5138 44.1101 51.8838 44.1101Z" fill="white"/>
<path d="M53.6468 35.9072C54.1284 36.5608 54.4208 37.3692 54.4208 38.2378C54.4208 40.405 52.6664 42.1594 50.4992 42.1594C49.4414 42.1594 48.4868 41.738 47.7816 41.0672C48.3148 42.8302 49.9488 44.103 51.8838 44.103C54.2488 44.103 56.1752 42.1852 56.1752 39.8116C56.1752 38.083 55.1346 36.578 53.6468 35.9072Z" fill="white"/>
<path d="M51.8838 44.1101C54.2539 44.1101 56.1752 42.1888 56.1752 39.8187C56.1752 37.4487 54.2539 35.5273 51.8838 35.5273C49.5138 35.5273 47.5924 37.4487 47.5924 39.8187C47.5924 42.1888 49.5138 44.1101 51.8838 44.1101Z" stroke="#140735" stroke-width="0.5" stroke-miterlimit="10" stroke-linecap="round" stroke-linejoin="round"/>
<path d="M49.708 41.9949C49.149 41.4359 48.805 40.6705 48.805 39.8191" stroke="white" stroke-width="0.5" stroke-miterlimit="10" stroke-linecap="round" stroke-linejoin="round"/>
<path d="M47.0506 39.525C50.4133 39.525 53.1394 36.799 53.1394 33.4362C53.1394 30.0735 50.4133 27.3474 47.0506 27.3474C43.6878 27.3474 40.9618 30.0735 40.9618 33.4362C40.9618 36.799 43.6878 39.525 47.0506 39.525Z" fill="white"/>
<path d="M49.5446 27.8806C50.2326 28.8094 50.6368 29.9532 50.6368 31.1916C50.6368 34.2618 48.1428 36.7558 45.0726 36.7558C43.5762 36.7558 42.2174 36.1624 41.2198 35.1992C41.9766 37.6932 44.2986 39.5164 47.042 39.5164C50.4046 39.5164 53.1308 36.7902 53.1308 33.4276C53.1394 30.968 51.6602 28.8352 49.5446 27.8806Z" fill="white"/>
<path d="M47.0506 39.525C50.4133 39.525 53.1394 36.799 53.1394 33.4362C53.1394 30.0735 50.4133 27.3474 47.0506 27.3474C43.6878 27.3474 40.9618 30.0735 40.9618 33.4362C40.9618 36.799 43.6878 39.525 47.0506 39.525Z" stroke="#140735" stroke-width="0.5" stroke-miterlimit="10" stroke-linecap="round" stroke-linejoin="round"/>
<path d="M43.9632 36.5217C43.172 35.7305 42.6818 34.6383 42.6818 33.4343" stroke="white" stroke-width="0.5" stroke-miterlimit="10" stroke-linecap="round" stroke-linejoin="round"/>
<path d="M62.9868 58.9953C66.684 55.9911 69.084 52.8207 68.3472 51.9139C67.6104 51.0071 64.0158 52.7073 60.3186 55.7114C56.6213 58.7155 54.2214 61.886 54.9582 62.7928C55.695 63.6996 59.2895 61.9994 62.9868 58.9953Z" fill="white"/>
<path d="M62.9868 58.9953C66.684 55.9911 69.084 52.8207 68.3472 51.9139C67.6104 51.0071 64.0158 52.7073 60.3186 55.7114C56.6213 58.7155 54.2214 61.886 54.9582 62.7928C55.695 63.6996 59.2895 61.9994 62.9868 58.9953Z" stroke="#140735" stroke-width="0.5" stroke-miterlimit="10" stroke-linecap="round" stroke-linejoin="round"/>
<path d="M51.772 31.7696C50.4562 29.181 48.2374 26.1624 46.3712 24.2532C42.1142 19.8844 40.076 21.6216 39.6546 22.1118C38.872 23.0148 39.1644 25.2852 40.8414 27.2976C40.2222 26.6096 38.6484 25.0014 38.0808 24.5714C35.905 22.9374 33.712 23.2384 32.9724 24.2188C32.164 25.2938 31.8458 27.4094 35.5696 30.7548C39.56 34.341 42.8366 39.802 43.2838 40.576C43.2838 40.576 43.2838 40.576 43.2752 40.5846C41.022 37.308 35.4062 31.6578 31.4244 32.6038C29.326 33.1026 28.5778 36.3792 32.6456 39.0452C35.948 41.2124 38.7774 43.586 42.699 48.66C41.2628 49.0642 38.6054 47.843 36.2146 47.7226C31.089 47.4646 30.358 50.939 30.8224 52.8654C31.4416 55.4454 37.6594 52.315 42.57 55.54C45.2532 57.303 49.0716 60.6226 54.266 57.8534L60.7762 68.9646C65.7814 67.5972 69.5826 64.441 72.6098 60.141L64.844 50.2166C67.1832 47.2238 63.1756 40.7222 58.523 34.6678C56.6998 30.2302 56.1838 28.8542 55.1862 26.2054C54.4638 24.2876 53.836 21.5872 52.1848 21.6732C48.633 21.8538 49.9746 28.063 51.772 31.7696Z" fill="white"/>
<path d="M34.701 53.8027C34.701 53.8027 34.701 53.1233 34.701 52.4009C34.701 52.1687 34.529 51.9709 34.3054 51.9279C33.2734 51.7473 32.1812 51.6785 31.8458 52.1257C31.5964 52.4525 31.691 53.6135 31.691 53.6135C32.3962 53.8801 33.5314 53.8543 34.701 53.8027Z" fill="white" stroke="#140735" stroke-width="0.5" stroke-miterlimit="10" stroke-linecap="round" stroke-linejoin="round"/>
<path d="M33.153 23.8389C33.669 23.6497 34.6838 23.6841 36.8682 25.1977C39.431 26.9779 44.8232 34.7007 45.494 35.9133C46.526 37.7795 47.7042 36.8421 47.7042 36.8421C47.7042 36.8421 41.9078 25.8427 35.9136 23.3487C34.7268 23.0821 33.712 23.3315 33.153 23.8389Z" fill="#140735"/>
<path d="M39.6976 21.8883C40.4802 21.8109 41.7616 22.1291 43.1634 23.3933C49.0372 28.6737 49.9402 32.9221 51.514 34.4271C51.8322 34.7281 52.4858 34.4701 53.105 34.2293C51.0582 29.8261 46.5346 24.2619 46.3626 24.0813C42.2604 19.8845 40.2222 21.3379 39.6976 21.8883Z" fill="#140735"/>
<path d="M30.5386 32.8801C39.8094 36.8963 40.9877 40.4051 41.4951 40.6803C42.0025 40.9555 42.6647 41.4371 43.2753 40.4051C40.248 36.0707 36.7392 33.9379 33.927 32.5791C33.0498 32.3211 32.1984 32.2523 31.4158 32.4329C31.089 32.5189 30.788 32.6651 30.5386 32.8801Z" fill="#140735"/>
<path d="M52.1848 21.6723C51.2646 21.6551 52.1762 22.6699 52.5804 23.7449C53.4404 26.0325 56.0118 31.4763 55.771 33.3339C55.7022 33.8843 56.2182 35.3291 56.545 35.7849C60.802 41.6932 63.21 47.8766 61.8426 50.448C60.4236 53.1054 67.5616 61.0088 67.5616 61.0088C65.145 64.4316 69.574 64.2682 72.6098 59.9682L64.844 50.0524C67.1832 47.0596 63.1756 40.558 58.523 34.5035C56.6998 30.0659 56.1838 28.6899 55.1862 26.0411C54.4638 24.1233 53.5694 21.6981 52.1848 21.6723Z" fill="#140735"/>
<path d="M40.8328 27.1267C40.8328 27.1267 45.2704 32.0975 47.7042 36.8447" stroke="#140735" stroke-width="0.5" stroke-miterlimit="10" stroke-linecap="round" stroke-linejoin="round"/>
<path d="M51.7634 31.61C50.4476 29.0214 48.2288 26.0028 46.3626 24.0936C42.1056 19.7248 40.0674 21.462 39.646 21.9522C38.8634 22.8552 39.1558 25.1256 40.8328 27.138C40.2136 26.45 38.6398 24.8418 38.0722 24.4118C35.8964 22.7778 33.7034 23.0788 32.9638 24.0592C32.1554 25.1342 31.8372 27.2498 35.561 30.5952C39.5514 34.1814 42.828 39.6424 43.2752 40.4164C43.2752 40.4164 43.2752 40.4164 43.2666 40.425C41.0134 37.1484 35.3976 31.4982 31.4158 32.4442C29.3174 32.943 28.5692 36.2196 32.637 38.8856C35.9394 41.0528 38.7688 43.4264 42.6904 48.5004C41.2542 48.9046 38.5968 47.6834 36.206 47.563C31.0804 47.305 30.3494 50.7794 30.8138 52.7058C31.433 55.2858 37.6508 52.1554 42.5614 55.3804C45.2446 57.1434 49.063 60.463 54.2574 57.6938L60.7676 68.805C65.7728 67.429 69.574 64.2728 72.6012 59.9728L64.8354 50.057C66.5038 45.6108 63.167 40.5626 58.5144 34.5082C56.6912 30.0706 56.1752 28.6946 55.1776 26.0458C54.4552 24.128 53.707 21.6254 52.1676 21.7028C48.5728 21.8748 49.9746 27.9034 51.7634 31.61Z" stroke="#140735" stroke-width="0.5" stroke-miterlimit="10" stroke-linecap="round" stroke-linejoin="round"/>
<path d="M53.105 34.2285L51.7634 31.6055" stroke="#140735" stroke-width="0.5" stroke-miterlimit="10" stroke-linecap="round" stroke-linejoin="round"/>
<path d="M54.954 62.7979C57.5942 64.5437 69.8664 54.1119 68.3442 51.9189C68.3442 51.9189 72.8334 57.8443 74.046 59.3751C74.0632 63.0301 65.7298 71.3549 59.5722 70.4691L54.954 62.7979Z" fill="white"/>
<path d="M66.0652 56.1763C67.5874 58.1801 70.821 62.4285 71.896 63.7959C73.229 62.1447 74.0546 60.5279 74.0546 59.3669C72.842 57.8361 68.3528 51.9106 68.3528 51.9106C68.8602 52.6588 67.7938 54.3445 66.0652 56.1763Z" fill="#140735"/>
<path d="M54.954 62.7979C57.5942 64.5437 69.8664 54.1119 68.3442 51.9189C68.3442 51.9189 72.8334 57.8443 74.046 59.3751C74.0632 63.0301 65.7298 71.3549 59.5722 70.4691L54.954 62.7979Z" stroke="#140735" stroke-width="0.5" stroke-miterlimit="10" stroke-linecap="round" stroke-linejoin="round"/>
<path d="M32.809 33.4483C32.1124 33.3279 30.8224 33.6117 30.917 35.0995C30.9772 35.9853 31.9748 36.7163 32.551 37.0603C32.766 37.1893 33.0412 37.1205 33.1702 36.9055L34.5032 34.7383C34.6236 34.5405 34.5806 34.2739 34.3914 34.1363C34.0646 33.8955 33.5056 33.5601 32.809 33.4483Z" fill="white" stroke="#140735" stroke-width="0.5" stroke-miterlimit="10" stroke-linecap="round" stroke-linejoin="round"/>
<path d="M42.656 22.6358C42.0626 22.395 40.8586 22.3864 40.6436 23.728C40.5146 24.5278 41.2628 25.3706 41.7014 25.792C41.8648 25.9468 42.1228 25.9468 42.2776 25.7834L43.8944 24.1236C44.0406 23.9688 44.0492 23.728 43.9116 23.5646C43.6794 23.2894 43.258 22.8852 42.656 22.6358Z" fill="white" stroke="#140735" stroke-width="0.5" stroke-miterlimit="10" stroke-linecap="round" stroke-linejoin="round"/>
<path d="M53.2684 23.6245C53.0104 23.1945 52.288 22.5065 51.5312 23.2461C51.084 23.6847 51.1356 24.6823 51.213 25.1467C51.2388 25.3187 51.4022 25.4391 51.5742 25.4047L53.3458 25.1209C53.5092 25.0951 53.6296 24.9489 53.6124 24.7855C53.6038 24.5017 53.5264 24.0545 53.2684 23.6245Z" fill="white" stroke="#140735" stroke-width="0.5" stroke-miterlimit="10" stroke-linecap="round" stroke-linejoin="round"/>
<path d="M35.8276 24.4163C35.1654 24.1669 33.841 24.3389 33.6518 25.6805C33.5486 26.3857 34.1076 27.1683 34.5978 27.7101C34.9504 28.0971 35.5696 28.1057 35.9308 27.7187L37.1176 26.4545C37.4788 26.0675 37.4358 25.4569 37.0316 25.1301C36.7048 24.8635 36.292 24.5883 35.8276 24.4163Z" fill="white" stroke="#140735" stroke-width="0.5" stroke-miterlimit="10" stroke-linecap="round" stroke-linejoin="round"/>
</svg>
