<svg width="102" height="86" viewBox="0 0 102 86" fill="none" xmlns="http://www.w3.org/2000/svg">
<path d="M50.5402 25.4001L44.247 18.8306C38.1464 12.4544 28.0001 12.3255 22.028 18.8306C16.2484 25.1425 14.3861 36.6713 22.2206 49.4882C30.1193 62.3051 50.476 71 50.476 71C50.476 71 70.897 62.3051 78.7314 49.4882C86.6301 36.6713 84.7678 25.1425 78.9241 18.8306C72.9519 12.3255 62.8056 12.4544 56.705 18.8306L50.5402 25.4001Z" fill="white"/>
<path d="M50.5402 25.4001L44.247 18.8306C38.1464 12.4544 28.0001 12.3255 22.028 18.8306C16.2484 25.1425 14.3861 36.6713 22.2206 49.4882C30.1193 62.3051 50.476 71 50.476 71C50.476 71 70.897 62.3051 78.7314 49.4882C86.6301 36.6713 84.7678 25.1425 78.9241 18.8306C72.9519 12.3255 62.8056 12.4544 56.705 18.8306L50.5402 25.4001Z" stroke="black" stroke-width="2" stroke-miterlimit="10" stroke-linecap="round" stroke-linejoin="round"/>
<path d="M28 44.0873H38.1138L43.0427 31L49.6998 54L54.4367 43.5042L58.0854 49.2704L62.9502 31L67.431 42.5324H73" stroke="black" stroke-width="2" stroke-miterlimit="10" stroke-linecap="round" stroke-linejoin="round"/>
</svg>
