<svg width="86" height="86" viewBox="0 0 86 86" fill="none" xmlns="http://www.w3.org/2000/svg">
<path fill-rule="evenodd" clip-rule="evenodd" d="M12.6658 42.6548C13.9435 41.3962 15.1444 40.0986 15.9526 38.9676C17.0651 37.4108 18.6962 35.9306 20.629 35.6451C22.8829 35.312 24.9529 36.8659 26.5913 38.4492C28.8549 40.6365 30.8862 43.0639 32.6404 45.6775C31.9367 45.7692 30.4205 46.8187 28.4054 46.7854C27.2193 46.7658 25.8022 45.7087 24.4324 45.6381C23.4809 45.5891 22.4422 46.585 21.4841 46.5091C19.809 46.3763 18.2422 45.1429 16.8291 44.9198C15.9872 44.7869 14.8511 45.6237 14.204 45.4558C12.4256 44.9945 11.8986 43.4106 12.6658 42.6548Z" fill="white"/>
<path fill-rule="evenodd" clip-rule="evenodd" d="M50.9806 62.2359C56.5028 60.4151 62.4868 62.5253 68.3009 62.4474C70.8768 62.4129 73.6303 61.8444 75.4036 59.9758C71.5196 57.6889 68.5715 54.0523 66.4241 50.0895C64.2766 46.1267 62.8648 41.8154 61.4645 37.5312C59.6221 36.4807 57.2506 38.2573 55.2282 37.6184C54.1948 37.2919 52.9606 36.4049 52.2189 37.1952C51.7713 37.6723 50.9375 37.3916 50.5021 36.9034C50.0667 36.4151 49.8241 35.7661 49.3331 35.3337C48.8422 34.9014 47.9102 34.8469 47.6604 35.4515C47.2279 36.4982 46.7719 37.5793 45.9427 38.3505C45.1134 39.1218 43.7986 39.4941 42.8274 38.9117C42.0686 38.4568 41.7105 37.5716 41.2686 36.8053C40.8267 36.0389 40.6543 35.35 39.7755 35.4515C36.807 41.7059 34.5908 47.8542 30.939 53.7358C29.3697 56.2632 20.5898 65.8976 15.4882 64.6559C10.3866 63.4143 10.7651 62.4474 9.04224 60.9206C10.8369 64.5717 14.0071 67.4443 17.6269 69.3011C21.2468 71.1579 25.3011 72.0507 29.3566 72.3732C30.9569 72.5004 32.5799 72.5405 34.1551 72.2309C40.6105 70.9622 44.7326 64.296 50.9806 62.2359Z" fill="white"/>
<path fill-rule="evenodd" clip-rule="evenodd" d="M45.4446 37.8411C46.0103 37.1102 46.3637 36.231 46.9466 35.5138C47.5294 34.7965 48.4759 34.2405 49.3576 34.5176C50.1781 34.7753 50.6295 35.6315 50.9954 36.4098C51.1791 36.8006 51.7374 36.8309 52.1398 36.6742C52.5422 36.5174 52.904 36.2341 53.3332 36.1873C54.2214 36.0903 54.8904 37.0104 55.7583 37.2223C57.0499 37.5375 58.3483 36.2194 59.6247 36.5914C60.1649 36.7488 60.6325 37.2004 61.1938 37.1618C60.1142 34.5741 59.301 31.8793 58.1676 29.3147C57.0342 26.7501 55.5394 24.2748 53.3633 22.5066C53.1395 22.3248 52.8947 22.1448 52.6087 22.1083C52.3227 22.0719 51.9914 22.2343 51.9413 22.5182C51.7923 23.3622 51.6433 24.2063 51.4943 25.0504C51.4206 25.4682 51.2258 25.9929 50.8015 25.9849C50.5189 25.9796 50.3018 25.7025 50.2629 25.4224C50.2239 25.1424 50.3178 24.8628 50.4103 24.5956C50.7 23.7585 50.9898 22.9214 51.2796 22.0842C49.2916 22.8016 47.5684 24.1331 46.1399 25.6908C44.7115 27.2485 43.5563 29.0338 42.449 30.834C41.501 32.3753 40.5826 33.9349 39.6945 35.5116C40.8854 35.3425 41.9227 36.3204 42.5965 37.3168C42.9997 37.913 43.4797 38.6233 44.1995 38.6207C44.7069 38.6188 45.134 38.2424 45.4446 37.8411Z" fill="white"/>
<path fill-rule="evenodd" clip-rule="evenodd" d="M53.1472 19.8263C53.0153 19.784 52.877 19.7358 52.7871 19.6304C52.6579 19.4787 52.6665 19.257 52.682 19.0584C52.8358 17.0952 52.9895 15.1321 53.1432 13.169C53.161 12.9415 53.3842 12.7738 53.6099 12.7402C53.8356 12.7066 54.0626 12.775 54.2805 12.8425C55.6864 13.2783 57.0922 13.714 58.498 14.1497C58.8411 14.2561 58.8594 14.7323 58.7872 15.0842C58.7149 15.4361 58.6607 15.8879 58.9678 16.0741C61.0181 17.3171 63.1967 18.3482 65.4578 19.1457C65.604 19.1972 65.6147 19.4195 65.5126 19.5361C65.4105 19.6527 65.2476 19.6903 65.096 19.7226C62.8004 20.2125 60.5541 20.933 58.4018 21.8699C58.1007 22.001 57.7075 22.1208 57.4801 21.8837C57.3184 21.7151 57.334 21.4514 57.3203 21.2181C57.3066 20.9848 57.2037 20.7055 56.9718 20.676C55.6744 20.5111 54.3923 20.2263 53.1472 19.8263ZM57.9636 15.8445C58.2781 15.3465 58.0539 14.5936 57.5181 14.3488C56.2476 13.7682 54.9142 13.3253 53.5488 13.0304C53.7757 13.3805 53.7636 13.8284 53.7436 14.2451C53.6667 15.8454 53.5876 17.4605 53.1698 19.0072C53.1337 19.1409 53.3057 19.2279 53.4409 19.2581C54.6519 19.5289 55.872 19.7591 57.0984 19.9482C56.9973 18.7662 56.8963 17.5843 56.7953 16.4023C56.7841 16.2709 56.7737 16.1337 56.8237 16.0117C56.9048 15.8141 57.1298 15.7067 57.3434 15.7006C57.5569 15.6945 57.7633 15.7701 57.9636 15.8445ZM57.7003 16.7762C57.7967 18.163 57.8932 19.5499 57.9896 20.9367C57.9981 21.0583 58.0123 21.1925 58.1022 21.2748C60.0571 20.4633 62.0823 19.8212 64.1476 19.3581C61.9096 18.7155 60.0216 16.9577 57.7003 16.7762Z" fill="black"/>
<path fill-rule="evenodd" clip-rule="evenodd" d="M38.162 71.8304C34.8152 73.5072 30.8915 73.6437 27.1788 73.1662C19.991 72.2418 12.7324 68.7572 9.15845 62.4528C7.61685 59.7334 6.83825 56.6499 6.29581 53.5713C5.99821 51.8824 5.42025 49.3529 6.47854 48.2048C6.715 47.9482 13.3578 42.5986 15.9526 38.9675C17.0651 37.4108 18.6962 35.9305 20.629 35.645C22.8829 35.3119 24.9529 36.8659 26.5914 38.4491C28.8549 40.6364 30.8862 43.0638 32.6404 45.6774C30.7073 44.8562 29.3161 43.1494 28.032 41.4874C26.748 39.8254 25.4212 38.0864 23.5414 37.1497C21.6616 36.213 19.051 36.369 17.8301 38.078C14.9202 42.1512 11.2391 45.6716 7.04015 48.397C6.72433 48.6019 6.69578 49.0451 6.70169 49.4216C6.76995 53.7672 7.25579 58.716 10.7322 61.3243C13.6358 63.5028 17.8508 63.2186 21.0314 61.4691C24.212 59.7197 26.5381 56.7606 28.5351 53.7292C34.3931 44.8372 38.1969 34.6734 44.4933 26.0862C45.9407 24.1122 47.646 22.1381 49.978 21.3939C51.534 20.8974 51.9703 18.9118 51.9416 17.2787C51.913 15.6456 51.7585 13.7889 52.8924 12.6133C52.6534 15.329 52.4144 18.0448 52.1754 20.7606C55.6583 22.4897 57.6926 26.1714 59.1856 29.7619C61.4027 35.0936 62.9076 40.7056 65.2416 45.9871C67.5756 51.2687 70.8887 56.3435 75.7862 59.4025C78.0532 56.4512 79.3459 51.7266 79.3459 49.0266C78.0532 47.6176 76.2168 45.4135 74.0684 44.421C71.5072 43.2379 68.6976 45.3121 66.6402 47.2425C67.7772 45.5117 69.1423 43.6897 71.1544 43.1995C72.7786 42.8038 74.517 43.394 75.8646 44.3833C77.2122 45.3726 78.2396 46.7267 79.247 48.0608C80.2656 48.397 80.4879 49.3318 79.7803 52.8459C79.0665 56.3904 77.5168 60.0769 74.369 61.8558C72.9468 62.6594 71.307 63.0041 69.6788 63.136C62.879 63.6869 55.6458 60.7838 49.4232 63.5803C45.1634 65.4947 42.3375 69.7383 38.162 71.8304ZM50.9806 62.2357C56.5028 60.415 62.4868 62.5251 68.3009 62.4472C70.8768 62.4127 73.6303 61.8442 75.4036 59.9756C71.5196 57.6888 68.5715 54.0521 66.4241 50.0893C64.2766 46.1265 62.8648 41.8152 61.4645 37.5311C59.622 36.4805 57.2506 38.2571 55.2282 37.6182C54.1948 37.2917 52.9605 36.4047 52.2189 37.195C51.7713 37.6721 50.9375 37.3915 50.5021 36.9032C50.0667 36.4149 49.8241 35.7659 49.3331 35.3336C48.8421 34.9012 47.9102 34.8468 47.6604 35.4514C47.2278 36.498 46.7719 37.5791 45.9427 38.3504C45.1134 39.1216 43.7986 39.4939 42.8273 38.9116C42.0686 38.4567 41.7105 37.5715 41.2686 36.8051C40.8266 36.0388 40.0947 35.2726 39.2159 35.3741C36.2474 41.6285 32.9267 47.7157 29.2749 53.5973C27.7057 56.1246 26.0448 58.6497 23.7973 60.5987C21.5497 62.5477 18.6147 63.8809 15.6522 63.6098C13.2615 63.3911 11.0899 62.1735 9.04222 60.9204C10.8368 64.5715 14.0071 67.4441 17.6269 69.3009C21.2467 71.1577 25.3011 72.0505 29.3566 72.373C30.9568 72.5002 32.5799 72.5403 34.1551 72.2307C40.6105 70.962 44.7326 64.2958 50.9806 62.2357ZM45.3299 37.3824C45.8956 36.6516 46.249 35.7723 46.8319 35.0551C47.4147 34.3379 48.3612 33.7819 49.2429 34.0589C50.0634 34.3167 50.5148 35.1728 50.8807 35.9511C51.0644 36.3419 51.6227 36.3722 52.0251 36.2155C52.4275 36.0588 52.7893 35.7754 53.2185 35.7286C54.1067 35.6317 54.7757 36.5517 55.6436 36.7636C56.9352 37.0788 58.2336 35.7608 59.51 36.1327C60.0502 36.2901 60.5178 36.7417 61.0791 36.7031C59.9995 34.1154 59.1923 31.5674 58.0589 29.0027C56.9255 26.4381 54.4635 21.9026 52.494 21.6497C50.5021 21.3938 47.4537 23.6744 46.0252 25.2321C44.5968 26.7898 43.4416 28.5751 42.3343 30.3753C41.3863 31.9167 40.4679 33.4763 39.5798 35.0529C40.7707 34.8838 41.808 35.8617 42.4818 36.8582C42.885 37.4544 43.365 38.1647 44.0847 38.162C44.5922 38.1601 45.0193 37.7837 45.3299 37.3824Z" fill="#00160A"/>
<path d="M38.162 71.8304L38.274 72.0539L38.162 71.8304ZM27.1788 73.1662L27.1469 73.4142L27.1788 73.1662ZM9.15845 62.4528L9.37594 62.3295L9.15845 62.4528ZM6.29581 53.5713L6.0496 53.6147L6.29581 53.5713ZM6.47854 48.2048L6.66236 48.3742L6.47854 48.2048ZM15.9526 38.9675L16.156 39.1129L15.9526 38.9675ZM20.629 35.645L20.6655 35.8923L20.629 35.645ZM26.5914 38.4491L26.7651 38.2693L26.5914 38.4491ZM32.6404 45.6774L32.5426 45.9075L33.3166 46.2363L32.848 45.5381L32.6404 45.6774ZM23.5414 37.1497L23.6529 36.9259L23.5414 37.1497ZM17.8301 38.078L17.6267 37.9326L17.8301 38.078ZM7.04015 48.397L6.90404 48.1873L7.04015 48.397ZM6.70169 49.4216L6.45172 49.4255L6.70169 49.4216ZM10.7322 61.3243L10.8822 61.1243L10.7322 61.3243ZM21.0314 61.4691L21.1519 61.6882L21.0314 61.4691ZM28.5351 53.7292L28.3264 53.5917L28.5351 53.7292ZM44.4933 26.0862L44.2917 25.9384L44.4933 26.0862ZM49.978 21.3939L49.902 21.1557L49.978 21.3939ZM52.8924 12.6133L53.1415 12.6352L53.2035 11.9307L52.7125 12.4397L52.8924 12.6133ZM52.1754 20.7606L51.9264 20.7387L51.9114 20.9086L52.0643 20.9845L52.1754 20.7606ZM59.1856 29.7619L59.4165 29.6659L59.1856 29.7619ZM75.7862 59.4025L75.6538 59.6146L75.8462 59.7348L75.9845 59.5548L75.7862 59.4025ZM79.3459 49.0266H79.5959V48.9293L79.5301 48.8576L79.3459 49.0266ZM74.0684 44.421L73.9635 44.648L74.0684 44.421ZM66.6402 47.2425L66.4312 47.1052L66.8112 47.4248L66.6402 47.2425ZM71.1544 43.1995L71.2136 43.4424L71.1544 43.1995ZM75.8646 44.3833L75.7166 44.5849L75.8646 44.3833ZM79.247 48.0608L79.0475 48.2114L79.0945 48.2737L79.1686 48.2982L79.247 48.0608ZM79.7803 52.8459L79.5352 52.7965L79.7803 52.8459ZM74.369 61.8558L74.492 62.0734L74.369 61.8558ZM69.6788 63.136L69.6989 63.3852L69.6788 63.136ZM49.4232 63.5803L49.5257 63.8083L49.4232 63.5803ZM50.9806 62.2357L51.0589 62.4732L50.9806 62.2357ZM68.3009 62.4472L68.3042 62.6972L68.3009 62.4472ZM75.4036 59.9756L75.585 60.1477L75.8013 59.9196L75.5304 59.7602L75.4036 59.9756ZM61.4645 37.5311L61.7021 37.4534L61.6721 37.3617L61.5883 37.3139L61.4645 37.5311ZM55.2282 37.6182L55.3035 37.3798L55.2282 37.6182ZM52.2189 37.195L52.0366 37.024L52.2189 37.195ZM50.5021 36.9032L50.6887 36.7368L50.5021 36.9032ZM49.3331 35.3336L49.1679 35.5212L49.3331 35.3336ZM47.6604 35.4514L47.8914 35.5468L47.6604 35.4514ZM42.8273 38.9116L42.9559 38.6971L42.8273 38.9116ZM41.2686 36.8051L41.052 36.93L41.2686 36.8051ZM39.2159 35.3741L39.1872 35.1258L39.0495 35.1417L38.99 35.267L39.2159 35.3741ZM29.2749 53.5973L29.0625 53.4654L29.2749 53.5973ZM23.7973 60.5987L23.6335 60.4098L23.7973 60.5987ZM15.6522 63.6098L15.6294 63.8588L15.6522 63.6098ZM9.04222 60.9204L9.17271 60.7072L8.43778 60.2575L8.81786 61.0307L9.04222 60.9204ZM29.3566 72.373L29.3764 72.1238L29.3566 72.373ZM34.1551 72.2307L34.2033 72.476L34.1551 72.2307ZM45.3299 37.3824L45.5276 37.5354L45.3299 37.3824ZM46.8319 35.0551L46.6379 34.8974L46.8319 35.0551ZM49.2429 34.0589L49.168 34.2974L49.2429 34.0589ZM50.8807 35.9511L51.1069 35.8448L50.8807 35.9511ZM52.0251 36.2155L51.9344 35.9825L52.0251 36.2155ZM53.2185 35.7286L53.2456 35.9771L53.2185 35.7286ZM55.6436 36.7636L55.7029 36.5207L55.6436 36.7636ZM59.51 36.1327L59.4401 36.3727L59.51 36.1327ZM61.0791 36.7031L61.0962 36.9526L61.444 36.9287L61.3098 36.6069L61.0791 36.7031ZM52.494 21.6497L52.5258 21.4017L52.494 21.6497ZM42.3343 30.3753L42.5473 30.5063L42.3343 30.3753ZM39.5798 35.0529L39.362 34.9302L39.1133 35.3716L39.6149 35.3004L39.5798 35.0529ZM42.4818 36.8582L42.2747 36.9982L42.4818 36.8582ZM44.0847 38.162L44.0857 38.412L44.0847 38.162ZM38.05 71.6069C34.7669 73.2518 30.901 73.3929 27.2107 72.9183L27.1469 73.4142C30.8821 73.8946 34.8635 73.7626 38.274 72.0539L38.05 71.6069ZM27.2107 72.9183C20.0691 71.9997 12.8976 68.5417 9.37594 62.3295L8.94097 62.5761C12.5672 68.9727 19.9129 72.4838 27.1469 73.4142L27.2107 72.9183ZM9.37594 62.3295C7.85548 59.6474 7.08284 56.5973 6.54201 53.528L6.0496 53.6147C6.59366 56.7024 7.37822 59.8194 8.94097 62.5761L9.37594 62.3295ZM6.54201 53.528C6.39118 52.672 6.1768 51.6396 6.1284 50.6727C6.07944 49.6946 6.20697 48.8682 6.66236 48.3742L6.29472 48.0353C5.69182 48.6894 5.57918 49.7019 5.62903 50.6977C5.67944 51.7049 5.90283 52.7818 6.0496 53.6147L6.54201 53.528ZM6.66236 48.3742C6.66123 48.3754 6.66714 48.3693 6.68709 48.3512C6.70481 48.3351 6.72886 48.3139 6.75946 48.2873C6.82055 48.2341 6.90434 48.1626 7.009 48.0736C7.21753 47.8964 7.50758 47.6513 7.856 47.354C8.55352 46.7589 9.48915 45.9509 10.499 45.037C12.5132 43.2139 14.8412 40.9527 16.156 39.1129L15.7492 38.8222C14.4692 40.6134 12.1784 42.8426 10.1634 44.6662C9.15863 45.5757 8.22705 46.3801 7.53146 46.9737C7.18332 47.2707 6.89533 47.514 6.68519 47.6926C6.58051 47.7816 6.4948 47.8548 6.43134 47.91C6.37351 47.9603 6.32109 48.0067 6.29472 48.0353L6.66236 48.3742ZM16.156 39.1129C17.2531 37.5776 18.8321 36.1632 20.6655 35.8923L20.5924 35.3977C18.5603 35.6979 16.877 37.2439 15.7492 38.8222L16.156 39.1129ZM20.6655 35.8923C21.7225 35.7361 22.7483 36.02 23.7218 36.5482C24.6967 37.0771 25.6049 37.8435 26.4176 38.6289L26.7651 38.2693C25.9394 37.4715 24.9934 36.6692 23.9602 36.1087C22.9256 35.5474 21.7893 35.2208 20.5924 35.3977L20.6655 35.8923ZM26.4176 38.6289C28.6685 40.804 30.6885 43.2178 32.4328 45.8167L32.848 45.5381C31.084 42.9099 29.0413 40.4689 26.7651 38.2693L26.4176 38.6289ZM32.7381 45.4473C30.8736 44.6552 29.5186 43.0026 28.2299 41.3346L27.8342 41.6403C29.1136 43.2963 30.541 45.0572 32.5426 45.9075L32.7381 45.4473ZM28.2299 41.3346C26.9542 39.6834 25.5934 37.8929 23.6529 36.9259L23.4299 37.3734C25.249 38.2799 26.5418 39.9674 27.8342 41.6403L28.2299 41.3346ZM23.6529 36.9259C22.6695 36.4359 21.4969 36.2317 20.4063 36.3738C19.3146 36.5161 18.2866 37.0089 17.6267 37.9326L18.0335 38.2233C18.5945 37.4381 19.4822 36.9985 20.4709 36.8696C21.4608 36.7407 22.5334 36.9268 23.4299 37.3734L23.6529 36.9259ZM17.6267 37.9326C14.7349 41.9804 11.0767 45.4789 6.90404 48.1873L7.17625 48.6067C11.4015 45.8642 15.1054 42.322 18.0335 38.2233L17.6267 37.9326ZM6.90404 48.1873C6.67449 48.3363 6.56256 48.565 6.50773 48.7843C6.45352 49.0012 6.4487 49.2334 6.45172 49.4255L6.95166 49.4177C6.94876 49.2333 6.95526 49.0558 6.9928 48.9056C7.02972 48.7579 7.08999 48.6627 7.17625 48.6067L6.90404 48.1873ZM6.45172 49.4255C6.48592 51.6028 6.62458 53.9518 7.19741 56.0891C7.7708 58.2286 8.78443 60.1754 10.5821 61.5243L10.8822 61.1243C9.20355 59.8648 8.23606 58.0331 7.68036 55.9597C7.12411 53.8842 6.98572 51.586 6.95166 49.4177L6.45172 49.4255ZM10.5821 61.5243C13.5881 63.7796 17.9147 63.4688 21.1519 61.6882L20.9109 61.2501C17.7869 62.9684 13.6834 63.226 10.8822 61.1243L10.5821 61.5243ZM21.1519 61.6882C24.3887 59.9078 26.7426 56.9046 28.7439 53.8668L28.3264 53.5917C26.3337 56.6165 24.0353 59.5315 20.9109 61.2501L21.1519 61.6882ZM28.7439 53.8668C31.6815 49.4077 34.1036 44.6303 36.5714 39.9092C39.0417 35.1832 41.5591 30.5107 44.6949 26.2341L44.2917 25.9384C41.1311 30.2489 38.5984 34.9519 36.1283 39.6776C33.6555 44.4082 31.2468 49.1588 28.3264 53.5917L28.7439 53.8668ZM44.6949 26.2341C46.1416 24.261 47.8058 22.3495 50.054 21.6321L49.902 21.1557C47.4861 21.9267 45.7398 23.9634 44.2917 25.9384L44.6949 26.2341ZM50.054 21.6321C50.9276 21.3533 51.47 20.6592 51.7867 19.854C52.1027 19.0508 52.2063 18.1107 52.1916 17.2743L51.6917 17.2831C51.7056 18.0799 51.6054 18.9491 51.3214 19.671C51.0382 20.391 50.5844 20.938 49.902 21.1557L50.054 21.6321ZM52.1916 17.2743C52.177 16.4444 52.1324 15.5976 52.2292 14.8047C52.3253 14.0175 52.5579 13.3203 53.0724 12.7868L52.7125 12.4397C52.0931 13.0819 51.8359 13.9008 51.7329 14.7441C51.6306 15.5819 51.6776 16.4799 51.6917 17.2831L52.1916 17.2743ZM52.6434 12.5914C52.5239 13.9492 52.4044 15.3071 52.2849 16.665C52.1654 18.0229 52.0459 19.3808 51.9264 20.7387L52.4245 20.7825C52.544 19.4246 52.6635 18.0667 52.783 16.7088C52.9025 15.351 53.022 13.9931 53.1415 12.6352L52.6434 12.5914ZM52.0643 20.9845C55.4585 22.6697 57.4637 26.2719 58.9548 29.8579L59.4165 29.6659C57.9216 26.0708 55.8582 22.3098 52.2866 20.5366L52.0643 20.9845ZM58.9548 29.8579C60.0597 32.5152 60.9875 35.2429 61.9335 37.9751C62.8785 40.7044 63.8412 43.4368 65.0129 46.0882L65.4703 45.8861C64.3079 43.2559 63.3512 40.5415 62.406 37.8115C61.4618 35.0844 60.5285 32.3403 59.4165 29.6659L58.9548 29.8579ZM65.0129 46.0882C67.356 51.3902 70.6953 56.5174 75.6538 59.6146L75.9186 59.1905C71.0822 56.1696 67.7952 51.1471 65.4703 45.8861L65.0129 46.0882ZM75.9845 59.5548C77.1408 58.0494 78.042 56.1019 78.6542 54.1968C79.2661 52.2924 79.5959 50.4097 79.5959 49.0266H79.0959C79.0959 50.3435 78.7793 52.1731 78.1781 54.0438C77.5772 55.9139 76.6986 57.8044 75.5879 59.2502L75.9845 59.5548ZM79.5301 48.8576C78.89 48.1599 78.0979 47.2457 77.2009 46.387C76.3032 45.5277 75.2837 44.7071 74.1732 44.1941L73.9635 44.648C75.0014 45.1274 75.9743 45.9051 76.8551 46.7482C77.7366 47.592 78.5091 48.4844 79.1616 49.1956L79.5301 48.8576ZM74.1732 44.1941C72.8001 43.5598 71.3748 43.8087 70.0575 44.4387C68.7425 45.0675 67.5033 46.0898 66.4691 47.0602L66.8112 47.4248C67.8344 46.4648 69.0287 45.4848 70.2732 44.8897C71.5154 44.2958 72.7755 44.0992 73.9635 44.648L74.1732 44.1941ZM66.8491 47.3797C67.9919 45.6402 69.3091 43.9064 71.2136 43.4424L71.0952 42.9566C68.9755 43.473 67.5626 45.3831 66.4312 47.1052L66.8491 47.3797ZM71.2136 43.4424C72.7425 43.0699 74.4058 43.6226 75.7166 44.5849L76.0125 44.1818C74.6281 43.1655 72.8147 42.5377 71.0952 42.9566L71.2136 43.4424ZM75.7166 44.5849C77.0299 45.5489 78.0363 46.8724 79.0475 48.2114L79.4465 47.9101C78.4428 46.5809 77.3945 45.1963 76.0125 44.1818L75.7166 44.5849ZM79.1686 48.2982C79.3924 48.372 79.5506 48.4711 79.6649 48.613C79.7805 48.7564 79.8698 48.9664 79.9131 49.2944C80.0015 49.963 79.8895 51.0371 79.5352 52.7965L80.0254 52.8952C80.3787 51.1405 80.5094 49.9902 80.4088 49.2289C80.3577 48.8418 80.2447 48.5355 80.0542 48.2992C79.8625 48.0614 79.6109 47.9176 79.3254 47.8234L79.1686 48.2982ZM79.5352 52.7965C78.8254 56.3213 77.2961 59.9146 74.246 61.6381L74.492 62.0734C77.7376 60.2393 79.3076 56.4595 80.0254 52.8952L79.5352 52.7965ZM74.246 61.6381C72.8677 62.417 71.268 62.7565 69.6586 62.8868L69.6989 63.3852C71.3459 63.2518 73.0259 62.9019 74.492 62.0734L74.246 61.6381ZM69.6586 62.8868C66.287 63.16 62.8197 62.5768 59.3568 62.267C55.9135 61.959 52.4942 61.9261 49.3208 63.3523L49.5257 63.8083C52.5748 62.438 55.8834 62.4583 59.3123 62.7651C62.7215 63.07 66.2708 63.6629 69.6989 63.3852L69.6586 62.8868ZM49.3208 63.3523C47.1509 64.3274 45.3527 65.8929 43.5951 67.4517C41.8278 69.0191 40.1027 70.5784 38.05 71.6069L38.274 72.0539C40.3968 70.9903 42.1724 69.3818 43.9269 67.8258C45.6911 66.2611 47.4357 64.7476 49.5257 63.8083L49.3208 63.3523ZM51.0589 62.4732C53.7683 61.5798 56.6015 61.6473 59.5065 61.9367C62.395 62.2244 65.3786 62.7364 68.3042 62.6972L68.2976 62.1973C65.4091 62.236 62.4936 61.7318 59.5561 61.4391C56.635 61.1481 53.7151 61.0709 50.9023 61.9983L51.0589 62.4732ZM68.3042 62.6972C70.9012 62.6624 73.7409 62.0909 75.585 60.1477L75.2223 59.8035C73.5198 61.5976 70.8524 62.163 68.2976 62.1973L68.3042 62.6972ZM75.5304 59.7602C71.6979 57.5036 68.7776 53.9078 66.6439 49.9702L66.2043 50.2084C68.3653 54.1964 71.3413 57.8739 75.2768 60.191L75.5304 59.7602ZM66.6439 49.9702C64.509 46.0306 63.1036 41.7412 61.7021 37.4534L61.2269 37.6087C62.626 41.8893 64.0442 46.2224 66.2043 50.2084L66.6439 49.9702ZM61.5883 37.3139C60.5728 36.7349 59.4251 36.9455 58.3609 37.1759C57.2583 37.4147 56.2368 37.6747 55.3035 37.3798L55.1529 37.8566C56.2419 38.2006 57.4173 37.8918 58.4667 37.6646C59.5545 37.4291 60.5137 37.2767 61.3407 37.7482L61.5883 37.3139ZM55.3035 37.3798C55.0592 37.3026 54.8004 37.1914 54.5247 37.0734C54.2542 36.9576 53.9678 36.8354 53.6879 36.7489C53.1347 36.5782 52.5106 36.5189 52.0366 37.024L52.4012 37.3661C52.6689 37.0809 53.0327 37.0699 53.5404 37.2267C53.7909 37.304 54.0531 37.4154 54.3279 37.533C54.5974 37.6484 54.8804 37.7705 55.1529 37.8566L55.3035 37.3798ZM52.0366 37.024C51.8923 37.1777 51.6742 37.2263 51.4107 37.1672C51.1452 37.1076 50.8733 36.9438 50.6887 36.7368L50.3155 37.0696C50.5663 37.3508 50.929 37.5715 51.3012 37.655C51.6753 37.739 52.0978 37.6894 52.4012 37.3661L52.0366 37.024ZM50.6887 36.7368C50.488 36.5118 50.3319 36.2501 50.1494 35.9632C49.9725 35.6851 49.7729 35.3877 49.4983 35.1459L49.1679 35.5212C49.3843 35.7118 49.5516 35.955 49.7275 36.2316C49.8979 36.4993 50.0807 36.8063 50.3155 37.0696L50.6887 36.7368ZM49.4983 35.1459C49.2029 34.8858 48.785 34.7443 48.4002 34.7537C48.0137 34.7631 47.6047 34.9315 47.4293 35.3559L47.8914 35.5468C47.9659 35.3666 48.1477 35.26 48.4124 35.2535C48.6788 35.2471 48.9724 35.349 49.1679 35.5212L49.4983 35.1459ZM47.4293 35.3559C46.9932 36.4112 46.5552 37.4392 45.7724 38.1673L46.1129 38.5334C46.9886 37.719 47.4625 36.5848 47.8914 35.5468L47.4293 35.3559ZM45.7724 38.1673C44.991 38.894 43.7974 39.2017 42.9559 38.6971L42.6988 39.126C43.7998 39.7861 45.2357 39.3493 46.1129 38.5334L45.7724 38.1673ZM42.9559 38.6971C42.6235 38.4978 42.3694 38.1988 42.1397 37.8403C41.9018 37.4691 41.7206 37.0885 41.4851 36.6802L41.052 36.93C41.2585 37.288 41.4773 37.7333 41.7187 38.11C41.9681 38.4993 42.2725 38.8704 42.6988 39.126L42.9559 38.6971ZM41.4851 36.6802C41.254 36.2794 40.9415 35.8682 40.5609 35.5679C40.179 35.2665 39.712 35.0651 39.1872 35.1258L39.2446 35.6225C39.5986 35.5816 39.937 35.7125 40.2512 35.9604C40.5668 36.2094 40.8412 36.5644 41.052 36.93L41.4851 36.6802ZM38.99 35.267C36.0256 41.5128 32.7094 47.5918 29.0625 53.4654L29.4873 53.7291C33.1441 47.8396 36.4692 41.7442 39.4417 35.4813L38.99 35.267ZM29.0625 53.4654C27.493 55.9932 25.8493 58.4883 23.6335 60.4098L23.961 60.7876C26.2403 58.8111 27.9183 56.2561 29.4873 53.7291L29.0625 53.4654ZM23.6335 60.4098C21.4191 62.3301 18.549 63.6238 15.6749 63.3609L15.6294 63.8588C18.6805 64.138 21.6803 62.7654 23.961 60.7876L23.6335 60.4098ZM15.6749 63.3609C13.3489 63.148 11.2225 61.9615 9.17271 60.7072L8.91173 61.1337C10.9574 62.3854 13.1741 63.6341 15.6294 63.8588L15.6749 63.3609ZM8.81786 61.0307C10.6407 64.7392 13.8551 67.6471 17.5128 69.5234L17.741 69.0785C14.1592 67.2411 11.033 64.4038 9.26658 60.8102L8.81786 61.0307ZM17.5128 69.5234C21.1705 71.3996 25.2595 72.298 29.3367 72.6222L29.3764 72.1238C25.3427 71.803 21.323 70.9158 17.741 69.0785L17.5128 69.5234ZM29.3367 72.6222C30.9438 72.75 32.5941 72.7923 34.2033 72.476L34.1069 71.9854C32.5657 72.2883 30.9699 72.2505 29.3764 72.1238L29.3367 72.6222ZM34.2033 72.476C37.4984 71.8284 40.1867 69.8052 42.8012 67.7257C45.4324 65.6329 47.9867 63.4861 51.0589 62.4732L50.9023 61.9983C47.7265 63.0454 45.0957 65.2618 42.49 67.3343C39.8676 69.4201 37.2671 71.3643 34.1069 71.9854L34.2033 72.476ZM45.5276 37.5354C45.8227 37.1541 46.0611 36.7359 46.2908 36.3389C46.5237 35.9364 46.7487 35.5539 47.0259 35.2128L46.6379 34.8974C46.3322 35.2736 46.089 35.6893 45.8581 36.0884C45.624 36.493 45.4028 36.8798 45.1322 37.2294L45.5276 37.5354ZM47.0259 35.2128C47.5836 34.5265 48.4324 34.0663 49.168 34.2974L49.3179 33.8204C48.29 33.4975 47.2459 34.1492 46.6379 34.8974L47.0259 35.2128ZM49.168 34.2974C49.5123 34.4056 49.791 34.6423 50.0333 34.9611C50.277 35.2817 50.4719 35.6691 50.6544 36.0575L51.1069 35.8448C50.9237 35.4549 50.7099 35.025 50.4313 34.6585C50.1513 34.2902 49.7941 33.97 49.3179 33.8204L49.168 34.2974ZM50.6544 36.0575C50.7916 36.3493 51.0632 36.4891 51.3283 36.535C51.5914 36.5805 51.8777 36.5412 52.1158 36.4484L51.9344 35.9825C51.7701 36.0465 51.576 36.0704 51.4135 36.0423C51.2528 36.0145 51.1535 35.9438 51.1069 35.8448L50.6544 36.0575ZM52.1158 36.4484C52.3304 36.3649 52.5477 36.2416 52.7227 36.1549C52.9104 36.0619 53.076 35.9956 53.2456 35.9771L53.1914 35.4801C52.9318 35.5084 52.7018 35.6072 52.5008 35.7068C52.287 35.8127 52.1221 35.9094 51.9344 35.9825L52.1158 36.4484ZM53.2456 35.9771C53.5957 35.9389 53.9188 36.0976 54.3051 36.3417C54.6673 36.5705 55.0991 36.888 55.5844 37.0065L55.7029 36.5207C55.3202 36.4273 54.9836 36.1789 54.5722 35.919C54.185 35.6743 53.7295 35.4214 53.1914 35.4801L53.2456 35.9771ZM55.5844 37.0065C56.3195 37.1859 57.0448 36.897 57.6708 36.6608C58.333 36.4109 58.8955 36.2141 59.4401 36.3727L59.58 35.8927C58.8481 35.6794 58.1232 35.9557 57.4943 36.193C56.829 36.444 56.2593 36.6565 55.7029 36.5207L55.5844 37.0065ZM59.4401 36.3727C59.6811 36.443 59.8952 36.5747 60.1745 36.7149C60.4354 36.8458 60.7443 36.9767 61.0962 36.9526L61.0619 36.4537C60.8525 36.4681 60.647 36.3926 60.3987 36.268C60.1689 36.1526 59.8791 35.9799 59.58 35.8927L59.4401 36.3727ZM61.3098 36.6069C60.7723 35.3184 60.3025 34.0398 59.8233 32.7568C59.3449 31.4756 58.8575 30.1913 58.2875 28.9017L57.8302 29.1038C58.3937 30.3788 58.8766 31.6509 59.3549 32.9317C59.8326 34.2108 60.3063 35.5001 60.8483 36.7994L61.3098 36.6069ZM58.2875 28.9017C57.7171 27.6109 56.8114 25.8217 55.7971 24.3194C55.2903 23.5687 54.751 22.8818 54.2075 22.3637C53.6698 21.8512 53.0983 21.4752 52.5258 21.4017L52.4621 21.8976C52.8744 21.9506 53.3492 22.2364 53.8625 22.7256C54.3699 23.2092 54.8862 23.8638 55.3828 24.5992C56.3752 26.0691 57.2672 27.8299 57.8302 29.1038L58.2875 28.9017ZM52.5258 21.4017C51.4386 21.2621 50.1138 21.8108 48.9172 22.548C47.7075 23.2932 46.5705 24.2677 45.841 25.0632L46.2095 25.4011C46.9084 24.6389 48.0098 23.6942 49.1794 22.9737C50.3621 22.2451 51.5575 21.7814 52.4621 21.8976L52.5258 21.4017ZM45.841 25.0632C44.3951 26.6399 43.2294 28.4429 42.1214 30.2443L42.5473 30.5063C43.6538 28.7073 44.7985 26.9398 46.2095 25.4011L45.841 25.0632ZM42.1214 30.2443C41.1717 31.7884 40.2516 33.3508 39.362 34.9302L39.7976 35.1756C40.6841 33.6017 41.6009 32.0449 42.5473 30.5063L42.1214 30.2443ZM39.6149 35.3004C40.1283 35.2275 40.6221 35.3988 41.0805 35.7227C41.5402 36.0474 41.9481 36.5153 42.2747 36.9982L42.6889 36.7181C42.3417 36.2047 41.8941 35.6853 41.369 35.3143C40.8425 34.9423 40.2221 34.7092 39.5446 34.8054L39.6149 35.3004ZM42.2747 36.9982C42.4732 37.2917 42.7083 37.6412 42.9908 37.9144C43.2761 38.1903 43.6355 38.4137 44.0857 38.412L44.0838 37.912C43.8143 37.913 43.5738 37.7826 43.3384 37.5549C43.1001 37.3245 42.8936 37.0208 42.6889 36.7181L42.2747 36.9982ZM44.0857 38.412C44.7163 38.4097 45.2081 37.9482 45.5276 37.5354L45.1322 37.2294C44.8305 37.6192 44.4681 37.9106 44.0838 37.912L44.0857 38.412Z" fill="black"/>
<path fill-rule="evenodd" clip-rule="evenodd" d="M36.5513 16.5849C35.3001 16.7119 34.2795 17.8104 33.764 19.2969C33.63 19.6834 33.1901 19.8618 32.4183 19.9362L32.3696 19.9407C30.6607 20.0931 29.5262 20.5332 28.9793 21.5394L28.9564 21.5824C28.9119 21.668 28.8738 21.7534 28.818 21.8885L28.7821 21.9764C28.653 22.2936 28.587 22.4278 28.4765 22.5675C28.1325 23.0024 27.6148 23.1363 26.5788 23.1674L26.4637 23.1704C23.9817 23.2257 22.2282 23.6028 20.8079 24.5948C20.4016 24.8785 20.1596 25.1602 20.1055 25.5212C20.0434 25.935 20.2838 26.3634 20.6676 26.5987C20.9747 26.7869 21.343 26.8612 21.803 26.8626C22.3627 26.8642 22.9223 26.7668 23.4485 26.5761L23.4924 26.56C23.5716 26.5306 23.6468 26.5007 23.7585 26.4544L23.995 26.3557C24.4803 26.1549 24.7157 26.0838 25.011 26.0683C25.4665 26.0444 25.826 26.1646 26.5915 26.5386L26.7525 26.6176C26.9191 26.6992 27.0394 26.756 27.1572 26.8077L27.1894 26.8217C28.4736 27.3763 29.7865 27.4691 31.9189 27.3065L32.3397 27.2726L33.2715 27.1937C33.5162 27.1739 33.6913 27.1611 33.893 27.1483L34.0877 27.1369C34.9183 27.0917 35.805 27.0909 37.2528 27.1198L38.2487 27.1406C40.2445 27.18 41.1442 27.1693 42.1035 27.0706C43.2179 26.9559 43.9437 26.1777 44.2412 25.025C44.4824 24.0907 44.3947 23.0006 44.0587 22.4826C43.3877 21.4483 42.3863 20.8253 41.4649 21.1124C41.1595 21.2075 40.7752 20.9832 40.5792 20.6153C40.4727 20.4154 40.4187 20.2351 40.3299 19.8312L40.2869 19.6357C40.2621 19.5252 40.2439 19.4512 40.221 19.3682C39.9084 18.237 39.0547 17.2711 37.9705 16.8218C37.4948 16.6247 37.0108 16.5383 36.5513 16.5849ZM37.8389 17.1397C38.8084 17.5414 39.5786 18.401 39.8745 19.4077L39.8894 19.4598C39.9108 19.537 39.9279 19.607 39.9518 19.7134L40.0049 19.9548C40.0942 20.3555 40.1546 20.5499 40.2756 20.7771C40.5367 21.2671 41.0608 21.5797 41.5386 21.4492L41.5672 21.4409C42.3064 21.2106 43.1733 21.7499 43.7701 22.6699C44.0473 23.0971 44.1272 24.0905 43.9082 24.9391C43.6435 25.9643 43.0224 26.6302 42.0683 26.7284L41.9613 26.7391C41.0827 26.8237 40.2088 26.8338 38.4063 26.7996L37.0903 26.7726C35.733 26.747 34.8768 26.7494 34.0685 26.7935L33.7515 26.8129C33.5252 26.828 33.3094 26.845 32.9569 26.8748L31.9852 26.9564C29.8805 27.1223 28.6008 27.0428 27.3796 26.5289L27.3258 26.5059C27.2237 26.4618 27.1218 26.4145 26.988 26.3498L26.686 26.2021C25.9056 25.8236 25.5142 25.6975 24.993 25.7248C24.6366 25.7435 24.3702 25.8266 23.8174 26.057L23.5729 26.1589C23.4762 26.1985 23.4087 26.2247 23.3313 26.2527C22.843 26.4297 22.3234 26.5201 21.804 26.5186C21.4014 26.5174 21.0911 26.4548 20.8473 26.3054C20.5737 26.1377 20.4058 25.8384 20.4457 25.5723C20.4822 25.3289 20.6691 25.1114 21.0049 24.8769C22.3387 23.9453 24.0062 23.5781 26.375 23.5167L26.4714 23.5144C27.6866 23.4873 28.3017 23.343 28.7463 22.781C28.8722 22.6217 28.9464 22.4791 29.0667 22.189L29.1598 21.9628C29.2069 21.8508 29.2402 21.7797 29.2815 21.7037C29.7428 20.8552 30.7368 20.4502 32.2621 20.2965L32.4002 20.2834C33.3141 20.2019 33.8701 19.9899 34.0778 19.4406L34.089 19.4097C34.5652 18.0363 35.4927 17.0381 36.586 16.9272C36.9675 16.8885 37.3757 16.9567 37.7833 17.1172L37.8389 17.1397Z" fill="#00160A"/>
<path d="M36.5513 16.5849L36.5765 16.8336L36.5513 16.5849ZM33.764 19.2969L34.0002 19.3789L33.764 19.2969ZM32.4183 19.9362L32.4413 20.1851L32.4422 20.185L32.4183 19.9362ZM32.3696 19.9407L32.3918 20.1897L32.3927 20.1896L32.3696 19.9407ZM28.9793 21.5394L28.7596 21.42L28.7586 21.422L28.9793 21.5394ZM28.9564 21.5824L28.7357 21.465L28.7346 21.4671L28.9564 21.5824ZM28.818 21.8885L28.5869 21.7931L28.5867 21.7938L28.818 21.8885ZM28.7821 21.9764L28.5507 21.8817L28.5505 21.8822L28.7821 21.9764ZM28.4765 22.5675L28.2804 22.4124L28.4765 22.5675ZM26.5788 23.1674L26.5853 23.4173L26.5863 23.4173L26.5788 23.1674ZM26.4637 23.1704L26.4693 23.4203L26.4702 23.4203L26.4637 23.1704ZM20.8079 24.5948L20.6647 24.3898L20.8079 24.5948ZM20.1055 25.5212L20.3527 25.5583L20.1055 25.5212ZM20.6676 26.5987L20.7982 26.3855L20.6676 26.5987ZM21.803 26.8626L21.8023 27.1126L21.803 26.8626ZM23.4485 26.5761L23.5337 26.8111L23.5346 26.8108L23.4485 26.5761ZM23.4924 26.56L23.5784 26.7948L23.5793 26.7944L23.4924 26.56ZM23.7585 26.4544L23.8542 26.6854L23.8547 26.6851L23.7585 26.4544ZM23.995 26.3557L23.8994 26.1247L23.8987 26.125L23.995 26.3557ZM25.011 26.0683L24.9979 25.8186L25.011 26.0683ZM26.5915 26.5386L26.7016 26.3142L26.7012 26.314L26.5915 26.5386ZM26.7525 26.6176L26.6423 26.8421L26.6426 26.8422L26.7525 26.6176ZM27.1572 26.8077L27.0569 27.0367L27.0575 27.0369L27.1572 26.8077ZM27.1894 26.8217L27.0896 27.0509L27.0902 27.0512L27.1894 26.8217ZM31.9189 27.3065L31.9379 27.5558L31.9391 27.5557L31.9189 27.3065ZM32.3397 27.2726L32.3598 27.5218L32.3608 27.5217L32.3397 27.2726ZM33.2715 27.1937L33.2513 26.9446L33.2504 26.9446L33.2715 27.1937ZM33.893 27.1483L33.8783 26.8988L33.8772 26.8988L33.893 27.1483ZM34.0877 27.1369L34.0741 26.8872L34.073 26.8873L34.0877 27.1369ZM37.2528 27.1198L37.2581 26.8699L37.2578 26.8699L37.2528 27.1198ZM38.2487 27.1406L38.2435 27.3905L38.2437 27.3905L38.2487 27.1406ZM42.1035 27.0706L42.1291 27.3193L42.1035 27.0706ZM44.2412 25.025L44.4833 25.0875L44.2412 25.025ZM44.0587 22.4826L44.2684 22.3465L44.0587 22.4826ZM41.4649 21.1124L41.5393 21.3511L41.4649 21.1124ZM40.5792 20.6153L40.7999 20.4977L40.5792 20.6153ZM40.3299 19.8312L40.0857 19.8848L40.0857 19.8849L40.3299 19.8312ZM40.2869 19.6357L40.5311 19.582L40.5308 19.5809L40.2869 19.6357ZM40.221 19.3682L39.98 19.4348L40.221 19.3682ZM37.9705 16.8218L37.8748 17.0528V17.0528L37.9705 16.8218ZM37.8389 17.1397L37.9346 16.9087L37.9325 16.9079L37.8389 17.1397ZM39.8745 19.4077L40.115 19.3391L40.1144 19.3371L39.8745 19.4077ZM39.8894 19.4598L40.1304 19.3933L40.1299 19.3913L39.8894 19.4598ZM39.9518 19.7134L40.196 19.6597L40.1957 19.6587L39.9518 19.7134ZM40.0049 19.9548L39.7607 20.0085L39.7609 20.0092L40.0049 19.9548ZM40.2756 20.7771L40.055 20.8946L40.2756 20.7771ZM41.5386 21.4492L41.6045 21.6904L41.6087 21.6892L41.5386 21.4492ZM41.5672 21.4409L41.6374 21.6809L41.6416 21.6795L41.5672 21.4409ZM43.7701 22.6699L43.5604 22.8059L43.7701 22.6699ZM43.9082 24.9391L44.1502 25.0015L43.9082 24.9391ZM42.0683 26.7284L42.0931 26.9772L42.0939 26.9771L42.0683 26.7284ZM41.9613 26.7391L41.9853 26.988L41.9861 26.9879L41.9613 26.7391ZM38.4063 26.7996L38.4012 27.0496L38.4016 27.0496L38.4063 26.7996ZM37.0903 26.7726L37.0954 26.5227L37.095 26.5227L37.0903 26.7726ZM34.0685 26.7935L34.0549 26.5438L34.0532 26.5439L34.0685 26.7935ZM33.7515 26.8129L33.7362 26.5633L33.7348 26.5634L33.7515 26.8129ZM32.9569 26.8748L32.9778 27.1239L32.9779 27.1239L32.9569 26.8748ZM31.9852 26.9564L32.0048 27.2056L32.0061 27.2055L31.9852 26.9564ZM27.3796 26.5289L27.2816 26.7588L27.2826 26.7593L27.3796 26.5289ZM27.3258 26.5059L27.2267 26.7354L27.2277 26.7359L27.3258 26.5059ZM26.988 26.3498L26.8782 26.5744L26.8791 26.5748L26.988 26.3498ZM26.686 26.2021L26.7958 25.9775L26.7951 25.9771L26.686 26.2021ZM24.993 25.7248L24.9799 25.4751L24.993 25.7248ZM23.8174 26.057L23.9136 26.2878L23.9136 26.2878L23.8174 26.057ZM23.5729 26.1589L23.6677 26.3902L23.6691 26.3896L23.5729 26.1589ZM23.3313 26.2527L23.2461 26.0177H23.2461L23.3313 26.2527ZM21.804 26.5186L21.8033 26.7686H21.8033L21.804 26.5186ZM20.8473 26.3054L20.978 26.0923L20.8473 26.3054ZM20.4457 25.5723L20.6929 25.6094L20.4457 25.5723ZM21.0049 24.8769L20.8617 24.6719L21.0049 24.8769ZM26.375 23.5167L26.369 23.2668L26.3685 23.2668L26.375 23.5167ZM26.4714 23.5144L26.4658 23.2644L26.4654 23.2644L26.4714 23.5144ZM28.7463 22.781L28.5502 22.6259L28.7463 22.781ZM29.0667 22.189L29.2976 22.2848L29.2979 22.2841L29.0667 22.189ZM29.1598 21.9628L28.9293 21.8658L28.9286 21.8677L29.1598 21.9628ZM29.2815 21.7037L29.5012 21.8231H29.5012L29.2815 21.7037ZM32.2621 20.2965L32.2385 20.0476L32.2371 20.0477L32.2621 20.2965ZM32.4002 20.2834L32.378 20.0344L32.3765 20.0345L32.4002 20.2834ZM34.0778 19.4406L34.3117 19.529L34.3129 19.5257L34.0778 19.4406ZM34.089 19.4097L34.3241 19.4949L34.3252 19.4916L34.089 19.4097ZM36.586 16.9272L36.6112 17.1759L36.586 16.9272ZM37.7833 17.1172L37.877 16.8854L37.8749 16.8846L37.7833 17.1172ZM36.526 16.3362C35.1364 16.4772 34.0587 17.684 33.5278 19.215L34.0002 19.3789C34.5003 17.9367 35.4637 16.9465 36.5765 16.8336L36.526 16.3362ZM33.5278 19.215C33.4884 19.3285 33.4038 19.425 33.2262 19.5063C33.0408 19.5912 32.7707 19.6511 32.3943 19.6873L32.4422 20.185C32.8377 20.1469 33.1734 20.0804 33.4344 19.9609C33.7032 19.8378 33.9056 19.6518 34.0002 19.3789L33.5278 19.215ZM32.3952 19.6872L32.3465 19.6918L32.3927 20.1896L32.4413 20.1851L32.3952 19.6872ZM32.3474 19.6917C30.6229 19.8454 29.3707 20.2958 28.7596 21.42L29.1989 21.6588C29.6818 20.7706 30.6985 20.3407 32.3918 20.1897L32.3474 19.6917ZM28.7586 21.422L28.7357 21.465L29.1771 21.6999L29.2 21.6568L28.7586 21.422ZM28.7346 21.4671C28.6851 21.5622 28.6437 21.6555 28.5869 21.7931L29.0491 21.9838C29.1038 21.8514 29.1387 21.7738 29.1782 21.6978L28.7346 21.4671ZM28.5867 21.7938L28.5507 21.8817L29.0135 22.071L29.0494 21.9831L28.5867 21.7938ZM28.5505 21.8822C28.4221 22.1977 28.3671 22.3029 28.2804 22.4124L28.6726 22.7226C28.8069 22.5528 28.8839 22.3895 29.0136 22.0706L28.5505 21.8822ZM28.2804 22.4124C28.0138 22.7494 27.6075 22.8864 26.5713 22.9175L26.5863 23.4173C27.6221 23.3862 28.2511 23.2554 28.6726 22.7226L28.2804 22.4124ZM26.5723 22.9175L26.4572 22.9205L26.4702 23.4203L26.5853 23.4173L26.5723 22.9175ZM26.4582 22.9205C23.9572 22.9762 22.1448 23.3562 20.6647 24.3898L20.951 24.7997C22.3117 23.8495 24.0062 23.4752 26.4693 23.4203L26.4582 22.9205ZM20.6647 24.3898C20.2384 24.6876 19.9277 25.0213 19.8582 25.4841L20.3527 25.5583C20.3916 25.2991 20.5647 25.0695 20.951 24.7997L20.6647 24.3898ZM19.8582 25.4841C19.7782 26.0175 20.0866 26.5358 20.5369 26.8118L20.7982 26.3855C20.481 26.1911 20.3086 25.8525 20.3527 25.5583L19.8582 25.4841ZM20.5369 26.8118C20.8978 27.033 21.3174 27.1111 21.8023 27.1126L21.8037 26.6126C21.3686 26.6113 21.0515 26.5408 20.7982 26.3855L20.5369 26.8118ZM21.8023 27.1126C22.3912 27.1143 22.98 27.0118 23.5337 26.8111L23.3633 26.3411C22.8647 26.5218 22.3341 26.6141 21.8037 26.6126L21.8023 27.1126ZM23.5346 26.8108L23.5784 26.7948L23.4063 26.3253L23.3625 26.3414L23.5346 26.8108ZM23.5793 26.7944C23.6626 26.7635 23.7409 26.7323 23.8542 26.6854L23.6627 26.2235C23.5526 26.2691 23.4806 26.2977 23.4054 26.3256L23.5793 26.7944ZM23.8547 26.6851L24.0913 26.5864L23.8987 26.125L23.6622 26.2237L23.8547 26.6851ZM24.0906 26.5867C24.5702 26.3882 24.7731 26.3311 25.0241 26.3179L24.9979 25.8186C24.6583 25.8364 24.3903 25.9216 23.8994 26.1247L24.0906 26.5867ZM25.0241 26.3179C25.4107 26.2977 25.7199 26.391 26.4817 26.7632L26.7012 26.314C25.9321 25.9382 25.5223 25.7911 24.9979 25.8186L25.0241 26.3179ZM26.4813 26.7631L26.6423 26.8421L26.8626 26.3932L26.7016 26.3142L26.4813 26.7631ZM26.6426 26.8422C26.8105 26.9244 26.9343 26.9829 27.0569 27.0367L27.2576 26.5787C27.1444 26.5291 27.0277 26.474 26.8624 26.3931L26.6426 26.8422ZM27.0575 27.0369L27.0896 27.0509L27.2891 26.5924L27.257 26.5784L27.0575 27.0369ZM27.0902 27.0512C28.4307 27.6301 29.7927 27.7194 31.9379 27.5558L31.8999 27.0573C29.7803 27.2189 28.5165 27.1226 27.2885 26.5922L27.0902 27.0512ZM31.9391 27.5557L32.3598 27.5218L32.3196 27.0234L31.8988 27.0573L31.9391 27.5557ZM32.3608 27.5217L33.2926 27.4429L33.2504 26.9446L32.3186 27.0235L32.3608 27.5217ZM33.2918 27.4429C33.5352 27.4231 33.7088 27.4105 33.9088 27.3978L33.8772 26.8988C33.6738 26.9117 33.4972 26.9246 33.2513 26.9446L33.2918 27.4429ZM33.9077 27.3979L34.1024 27.3864L34.073 26.8873L33.8783 26.8988L33.9077 27.3979ZM34.1013 27.3865C34.9222 27.3418 35.8012 27.3409 37.2478 27.3698L37.2578 26.8699C35.8088 26.8409 34.9144 26.8415 34.0741 26.8872L34.1013 27.3865ZM37.2476 27.3698L38.2435 27.3905L38.2539 26.8906L37.2581 26.8699L37.2476 27.3698ZM38.2437 27.3905C40.24 27.4299 41.1532 27.4197 42.1291 27.3193L42.0779 26.8219C41.1353 26.9189 40.2491 26.93 38.2536 26.8906L38.2437 27.3905ZM42.1291 27.3193C43.3736 27.1912 44.1669 26.3134 44.4833 25.0875L43.9992 24.9625C43.7205 26.0421 43.0622 26.7206 42.0779 26.8219L42.1291 27.3193ZM44.4833 25.0875C44.6111 24.5923 44.6514 24.0588 44.6157 23.5791C44.5805 23.1056 44.469 22.6557 44.2684 22.3465L43.8489 22.6186C43.9844 22.8274 44.0847 23.1816 44.1171 23.6162C44.149 24.0447 44.1125 24.5233 43.9992 24.9625L44.4833 25.0875ZM44.2684 22.3465C43.5764 21.2799 42.4757 20.5356 41.3905 20.8737L41.5393 21.3511C42.2969 21.115 43.199 21.6167 43.8489 22.6186L44.2684 22.3465ZM41.3905 20.8737C41.3216 20.8952 41.2214 20.8865 41.1045 20.8201C40.9892 20.7546 40.8768 20.6422 40.7999 20.4977L40.3586 20.7328C40.4776 20.9563 40.6554 21.1401 40.8576 21.2549C41.0581 21.3688 41.3028 21.4248 41.5393 21.3511L41.3905 20.8737ZM40.7999 20.4977C40.7104 20.3298 40.662 20.1778 40.574 19.7775L40.0857 19.8849C40.1753 20.2925 40.2351 20.5011 40.3586 20.7328L40.7999 20.4977ZM40.574 19.7775L40.5311 19.582L40.0427 19.6893L40.0857 19.8848L40.574 19.7775ZM40.5308 19.5809C40.5054 19.4677 40.4863 19.3897 40.462 19.3016L39.98 19.4348C40.0016 19.5128 40.0188 19.5826 40.043 19.6904L40.5308 19.5809ZM40.462 19.3016C40.1288 18.0962 39.2216 17.0696 38.0662 16.5909L37.8748 17.0528C38.8879 17.4725 39.6879 18.3778 39.98 19.4348L40.462 19.3016ZM38.0662 16.5909C37.5597 16.381 37.034 16.2846 36.526 16.3362L36.5765 16.8336C36.9875 16.7919 37.4299 16.8684 37.8748 17.0528L38.0662 16.5909ZM37.7432 17.3706C38.6426 17.7433 39.36 18.5438 39.6347 19.4782L40.1144 19.3371C39.7972 18.2583 38.9742 17.3395 37.9346 16.9087L37.7432 17.3706ZM39.6341 19.4762L39.649 19.5284L40.1299 19.3913L40.115 19.3391L39.6341 19.4762ZM39.6485 19.5264C39.6684 19.5985 39.6846 19.6643 39.7079 19.7681L40.1957 19.6587C40.1713 19.5497 40.1531 19.4755 40.1304 19.3933L39.6485 19.5264ZM39.7076 19.7671L39.7607 20.0085L40.2491 19.9011L40.196 19.6597L39.7076 19.7671ZM39.7609 20.0092C39.8518 20.4171 39.918 20.6375 40.055 20.8946L40.4963 20.6595C40.3912 20.4623 40.3367 20.294 40.2489 19.9004L39.7609 20.0092ZM40.055 20.8946C40.3505 21.4493 40.9768 21.8617 41.6045 21.6904L41.4728 21.208C41.1447 21.2976 40.7229 21.0848 40.4963 20.6595L40.055 20.8946ZM41.6087 21.6892L41.6373 21.6808L41.4971 21.2009L41.4685 21.2093L41.6087 21.6892ZM41.6416 21.6795C41.9266 21.5908 42.2554 21.6437 42.5973 21.8406C42.9396 22.0378 43.2785 22.3715 43.5604 22.8059L43.9798 22.5338C43.6648 22.0482 43.272 21.6523 42.8468 21.4074C42.4213 21.1622 41.9471 21.0607 41.4929 21.2022L41.6416 21.6795ZM43.5604 22.8059C43.6647 22.9667 43.7496 23.2714 43.7758 23.6631C43.8014 24.0466 43.7684 24.4802 43.6661 24.8766L44.1502 25.0015C44.267 24.5493 44.3035 24.062 44.2747 23.6298C44.2463 23.2059 44.1527 22.8003 43.9798 22.5338L43.5604 22.8059ZM43.6661 24.8766C43.4197 25.8312 42.8646 26.3952 42.0427 26.4798L42.0939 26.9771C43.1802 26.8653 43.8673 26.0975 44.1502 25.0015L43.6661 24.8766ZM42.0435 26.4797L41.9366 26.4903L41.9861 26.9879L42.0931 26.9772L42.0435 26.4797ZM41.9374 26.4903C41.0743 26.5733 40.2129 26.5838 38.4111 26.5497L38.4016 27.0496C40.2046 27.0837 41.0911 27.074 41.9853 26.988L41.9374 26.4903ZM38.4115 26.5497L37.0954 26.5227L37.0852 27.0226L38.4012 27.0496L38.4115 26.5497ZM37.095 26.5227C35.7361 26.497 34.8725 26.4993 34.0549 26.5438L34.0821 27.0431C34.881 26.9996 35.7298 26.997 37.0856 27.0226L37.095 26.5227ZM34.0532 26.5439L33.7362 26.5633L33.7668 27.0624L34.0838 27.043L34.0532 26.5439ZM33.7348 26.5634C33.5064 26.5787 33.2889 26.5958 32.9358 26.6256L32.9779 27.1239C33.3298 27.0941 33.544 27.0773 33.7682 27.0623L33.7348 26.5634ZM32.9359 26.6256L31.9642 26.7073L32.0061 27.2055L32.9778 27.1239L32.9359 26.6256ZM31.9655 26.7072C29.8715 26.8722 28.6411 26.7886 27.4766 26.2984L27.2826 26.7593C28.5604 27.2971 29.8894 27.3724 32.0048 27.2056L31.9655 26.7072ZM27.4777 26.2989L27.4239 26.2759L27.2277 26.7359L27.2816 26.7588L27.4777 26.2989ZM27.4249 26.2764C27.3273 26.2342 27.2288 26.1886 27.097 26.1248L26.8791 26.5748C27.0148 26.6405 27.1202 26.6894 27.2267 26.7354L27.4249 26.2764ZM27.0979 26.1252L26.7958 25.9775L26.5762 26.4267L26.8782 26.5744L27.0979 26.1252ZM26.7951 25.9771C26.0062 25.5946 25.567 25.4443 24.9799 25.4751L25.0061 25.9744C25.4614 25.9506 25.805 26.0527 26.5769 26.427L26.7951 25.9771ZM24.9799 25.4751C24.579 25.4962 24.2798 25.5934 23.7212 25.8263L23.9136 26.2878C24.4606 26.0597 24.6943 25.9908 25.0061 25.9744L24.9799 25.4751ZM23.7213 25.8262L23.4768 25.9281L23.6691 26.3896L23.9136 26.2878L23.7213 25.8262ZM23.4781 25.9275C23.3839 25.9661 23.3197 25.9911 23.2461 26.0177L23.4165 26.4878C23.4978 26.4583 23.5686 26.4308 23.6677 26.3902L23.4781 25.9275ZM23.2461 26.0177C22.7854 26.1847 22.2948 26.2701 21.8048 26.2686L21.8033 26.7686C22.3519 26.7702 22.9007 26.6747 23.4165 26.4878L23.2461 26.0177ZM21.8048 26.2686C21.4242 26.2675 21.1663 26.2077 20.978 26.0923L20.7167 26.5186C21.0158 26.7019 21.3787 26.7674 21.8033 26.7686L21.8048 26.2686ZM20.978 26.0923C20.7655 25.9621 20.6717 25.7507 20.6929 25.6094L20.1984 25.5352C20.1398 25.9261 20.3819 26.3134 20.7167 26.5186L20.978 26.0923ZM20.6929 25.6094C20.7133 25.4734 20.8241 25.3081 21.148 25.0818L20.8617 24.6719C20.5141 24.9147 20.2511 25.1845 20.1984 25.5352L20.6929 25.6094ZM21.148 25.0818C22.4225 24.1917 24.0314 23.8275 26.3815 23.7666L26.3685 23.2668C23.9809 23.3287 22.2549 23.6989 20.8617 24.6719L21.148 25.0818ZM26.381 23.7666L26.4774 23.7643L26.4654 23.2644L26.369 23.2668L26.381 23.7666ZM26.477 23.7643C27.6945 23.7372 28.4203 23.596 28.9424 22.9361L28.5502 22.6259C28.1831 23.09 27.6788 23.2374 26.4658 23.2644L26.477 23.7643ZM28.9424 22.9361C29.0895 22.7501 29.1741 22.5826 29.2976 22.2848L28.8358 22.0932C28.7187 22.3756 28.655 22.4934 28.5502 22.6259L28.9424 22.9361ZM29.2979 22.2841L29.391 22.0579L28.9286 21.8677L28.8355 22.0939L29.2979 22.2841ZM29.3902 22.0598C29.4354 21.9524 29.4651 21.8894 29.5012 21.8231L29.0619 21.5843C29.0153 21.67 28.9784 21.7492 28.9293 21.8658L29.3902 22.0598ZM29.5012 21.8231C29.8988 21.0917 30.7758 20.6975 32.2872 20.5452L32.2371 20.0477C30.6977 20.2028 29.5868 20.6187 29.0619 21.5843L29.5012 21.8231ZM32.2858 20.5454L32.4238 20.5323L32.3765 20.0345L32.2385 20.0476L32.2858 20.5454ZM32.4224 20.5324C33.3374 20.4508 34.0461 20.2314 34.3117 19.529L33.844 19.3521C33.6941 19.7485 33.2907 19.953 32.378 20.0344L32.4224 20.5324ZM34.3129 19.5257L34.3241 19.4948L33.854 19.3245L33.8428 19.3554L34.3129 19.5257ZM34.3252 19.4916C34.7872 18.1593 35.6588 17.2725 36.6112 17.1759L36.5608 16.6785C35.3266 16.8037 34.3432 17.9134 33.8528 19.3278L34.3252 19.4916ZM36.6112 17.1759C36.9458 17.142 37.3137 17.201 37.6917 17.3498L37.8749 16.8846C37.4377 16.7124 36.9893 16.635 36.5608 16.6785L36.6112 17.1759ZM37.6896 17.349L37.7452 17.3715L37.9325 16.9079L37.8769 16.8854L37.6896 17.349Z" fill="black"/>
<path fill-rule="evenodd" clip-rule="evenodd" d="M73.8345 23.7039L73.7921 23.7463C73.7597 23.7793 73.7277 23.8136 73.6881 23.8574L73.5307 24.0345C73.3806 24.2026 73.2995 24.2827 73.1933 24.3628C72.9622 24.5373 72.6852 24.5912 72.501 24.4882C72.427 24.4467 72.3719 24.3923 72.2654 24.2615L72.1862 24.1639C72.1448 24.1138 72.1155 24.0809 72.0794 24.0446C71.6047 23.5662 70.7755 23.5431 70.1444 23.9239C69.6505 24.2219 69.2955 24.6785 68.9068 25.4048C68.748 25.7015 68.3989 25.9067 67.9835 25.9694C67.7818 25.9999 67.5695 26.0022 67.2981 25.982L67.1653 25.9709L66.7482 25.9287C64.5528 25.7121 62.3075 26.0223 60.2531 26.8261C59.9289 26.9529 59.7486 27.0666 59.6342 27.2782C59.4692 27.5834 59.6364 28.0262 59.9888 28.0457C66.0111 28.3794 72.0582 28.2654 78.0636 27.705L78.4446 27.6692L78.7227 27.6501C78.7485 27.6482 78.7699 27.6464 78.7965 27.644L78.8678 27.6369C79.4157 27.5762 79.7166 27.3944 79.7166 26.9389C79.7166 26.4989 79.5045 26.3786 78.969 26.324L78.8617 26.3127C78.6543 26.2901 78.5597 26.2731 78.4317 26.2334C77.9775 26.0927 77.4366 25.7994 77.3186 25.6528C77.144 25.4361 77.0696 25.2321 76.9634 24.7579L76.9299 24.6079C76.8183 24.1194 76.7296 23.8864 76.5194 23.6251C75.9058 22.8622 74.5964 22.9555 73.8345 23.7039ZM76.2514 23.8406C76.4256 24.0573 76.5 24.2613 76.606 24.7347L76.6395 24.8849C76.7513 25.3741 76.84 25.6071 77.0507 25.8686C77.221 26.08 77.8163 26.4028 78.3299 26.562L78.3771 26.5761C78.4999 26.6115 78.603 26.6296 78.7831 26.6501L79.0203 26.6756C79.3231 26.7114 79.3726 26.7544 79.3726 26.9389C79.3726 27.1633 79.2101 27.2574 78.8007 27.2981L78.6961 27.3071L78.4342 27.3249C78.4216 27.3259 78.4098 27.3268 78.3983 27.3278L78.3644 27.3309C72.2665 27.9169 66.1244 28.0412 60.0078 27.7022C59.938 27.6983 59.8804 27.546 59.9367 27.4418C60.0002 27.3245 60.1261 27.2451 60.3784 27.1464C62.3478 26.3759 64.4975 26.0703 66.6036 26.2605L66.8612 26.286L67.0742 26.3078C67.1239 26.3127 67.1651 26.3164 67.2106 26.3202C67.535 26.3471 67.7879 26.3468 68.0349 26.3095C68.5492 26.2318 68.9944 25.9702 69.2101 25.5671C69.572 24.8908 69.894 24.4768 70.3221 24.2184C70.8274 23.9135 71.4829 23.9318 71.8352 24.2869L71.8558 24.3081C71.8728 24.3262 71.8898 24.3456 71.9108 24.3707L71.9768 24.4517C72.1244 24.6351 72.203 24.7155 72.3331 24.7883C72.6535 24.9676 73.0707 24.8864 73.4006 24.6374C73.5217 24.546 73.6107 24.4598 73.7576 24.2967L73.941 24.0906C73.9943 24.0316 74.032 23.9921 74.0756 23.9493C74.705 23.3311 75.7799 23.2545 76.2514 23.8406Z" fill="#00160A"/>
<path d="M73.8345 23.7039L73.6593 23.5255L73.6577 23.5271L73.8345 23.7039ZM73.7921 23.7463L73.6152 23.5696L73.6135 23.5714L73.7921 23.7463ZM73.6881 23.8574L73.5026 23.6898L73.5013 23.6913L73.6881 23.8574ZM73.5307 24.0345L73.7172 24.201L73.7175 24.2006L73.5307 24.0345ZM73.1933 24.3628L73.3439 24.5624L73.1933 24.3628ZM72.501 24.4882L72.379 24.7063V24.7063L72.501 24.4882ZM72.2654 24.2615L72.0713 24.419L72.0715 24.4193L72.2654 24.2615ZM72.1862 24.1639L72.3803 24.0063L72.3789 24.0046L72.1862 24.1639ZM72.0794 24.0446L71.9019 24.2207V24.2207L72.0794 24.0446ZM70.1444 23.9239L70.0152 23.7098L70.1444 23.9239ZM68.9068 25.4048L69.1272 25.5228V25.5228L68.9068 25.4048ZM67.9835 25.9694L67.9462 25.7222L67.9835 25.9694ZM67.2981 25.982L67.2773 26.2312L67.2797 26.2314L67.2981 25.982ZM67.1653 25.9709L67.1401 26.2197L67.1445 26.2201L67.1653 25.9709ZM66.7482 25.9287L66.7734 25.6799L66.7727 25.6799L66.7482 25.9287ZM60.2531 26.8261L60.162 26.5932L60.2531 26.8261ZM59.6342 27.2782L59.8541 27.3971H59.8541L59.6342 27.2782ZM59.9888 28.0457L59.975 28.2954L59.9888 28.0457ZM78.0636 27.705L78.0869 27.9539L78.087 27.9539L78.0636 27.705ZM78.4446 27.6692L78.4275 27.4197L78.4212 27.4203L78.4446 27.6692ZM78.7227 27.6501L78.7398 27.8995L78.7412 27.8994L78.7227 27.6501ZM78.7965 27.644L78.8187 27.8931L78.8213 27.8928L78.7965 27.644ZM78.8678 27.6369L78.8926 27.8857L78.8953 27.8854L78.8678 27.6369ZM78.969 26.324L78.9429 26.5726L78.9436 26.5727L78.969 26.324ZM78.8617 26.3127L78.8346 26.5612L78.8356 26.5613L78.8617 26.3127ZM78.4317 26.2334L78.3577 26.4722L78.4317 26.2334ZM77.3186 25.6528L77.1239 25.8097L77.3186 25.6528ZM76.9634 24.7579L76.7195 24.8124L76.7195 24.8125L76.9634 24.7579ZM76.9299 24.6079L77.1739 24.5534L77.1737 24.5522L76.9299 24.6079ZM76.5194 23.6251L76.7142 23.4684L76.5194 23.6251ZM76.2514 23.8406L76.0566 23.9973L76.2514 23.8406ZM76.606 24.7347L76.85 24.6802L76.8499 24.6801L76.606 24.7347ZM76.6395 24.8849L76.3955 24.9393L76.3958 24.9405L76.6395 24.8849ZM77.0507 25.8686L76.856 26.0254L77.0507 25.8686ZM78.3299 26.562L78.2559 26.8008L78.2582 26.8015L78.3299 26.562ZM78.3771 26.5761L78.3053 26.8156L78.3078 26.8163L78.3771 26.5761ZM78.7831 26.6501L78.7549 26.8985L78.7563 26.8986L78.7831 26.6501ZM79.0203 26.6756L79.0497 26.4273L79.047 26.427L79.0203 26.6756ZM78.8007 27.2981L78.8221 27.5472L78.8254 27.5469L78.8007 27.2981ZM78.6961 27.3071L78.713 27.5566L78.7175 27.5562L78.6961 27.3071ZM78.4342 27.3249L78.4172 27.0755L78.415 27.0756L78.4342 27.3249ZM78.3983 27.3278L78.3768 27.0787L78.3756 27.0789L78.3983 27.3278ZM78.3644 27.3309L78.3417 27.0819L78.3405 27.0821L78.3644 27.3309ZM60.0078 27.7022L59.994 27.9518H59.994L60.0078 27.7022ZM59.9367 27.4418L60.1567 27.5607L59.9367 27.4418ZM60.3784 27.1464L60.2873 26.9136L60.3784 27.1464ZM66.6036 26.2605L66.6282 26.0117L66.6261 26.0115L66.6036 26.2605ZM66.8612 26.286L66.8867 26.0373L66.8859 26.0372L66.8612 26.286ZM67.0742 26.3078L67.0487 26.5565L67.0498 26.5566L67.0742 26.3078ZM67.2106 26.3202L67.1899 26.5693L67.2106 26.3202ZM68.0349 26.3095L67.9976 26.0623L68.0349 26.3095ZM69.2101 25.5671L69.4305 25.685L69.2101 25.5671ZM70.3221 24.2184L70.4513 24.4324L70.3221 24.2184ZM71.8352 24.2869L72.015 24.1131L72.0127 24.1108L71.8352 24.2869ZM71.8558 24.3081L72.038 24.1369L72.0356 24.1344L71.8558 24.3081ZM71.9108 24.3707L72.1046 24.2127L72.1026 24.2103L71.9108 24.3707ZM71.9768 24.4517L72.1716 24.295L72.1706 24.2937L71.9768 24.4517ZM72.3331 24.7883L72.211 25.0065L72.211 25.0065L72.3331 24.7883ZM73.4006 24.6374L73.5512 24.8369L73.4006 24.6374ZM73.7576 24.2967L73.9434 24.464L73.9444 24.4629L73.7576 24.2967ZM73.941 24.0906L73.7555 23.923L73.7543 23.9244L73.941 24.0906ZM74.0756 23.9493L74.2507 24.1276V24.1276L74.0756 23.9493ZM73.6577 23.5271L73.6152 23.5696L73.9689 23.923L74.0113 23.8806L73.6577 23.5271ZM73.6135 23.5714C73.5781 23.6074 73.5437 23.6443 73.5026 23.6898L73.8736 24.025C73.9116 23.9829 73.9413 23.9513 73.9706 23.9213L73.6135 23.5714ZM73.5013 23.6913L73.3438 23.8684L73.7175 24.2006L73.875 24.0235L73.5013 23.6913ZM73.3442 23.868C73.1975 24.0323 73.1293 24.098 73.0427 24.1633L73.3439 24.5624C73.4698 24.4674 73.5637 24.3729 73.7172 24.201L73.3442 23.868ZM73.0427 24.1633C72.8511 24.3079 72.6845 24.3044 72.6231 24.27L72.379 24.7063C72.686 24.8781 73.0732 24.7668 73.3439 24.5624L73.0427 24.1633ZM72.6231 24.27C72.5934 24.2534 72.5634 24.2316 72.4593 24.1037L72.0715 24.4193C72.1803 24.553 72.2605 24.6401 72.379 24.7063L72.6231 24.27ZM72.4595 24.104L72.3803 24.0063L71.992 24.3214L72.0713 24.419L72.4595 24.104ZM72.3789 24.0046C72.3341 23.9505 72.2996 23.9116 72.2569 23.8685L71.9019 24.2207C71.9313 24.2503 71.9555 24.2772 71.9934 24.3231L72.3789 24.0046ZM72.2569 23.8685C71.6807 23.2878 70.7181 23.2857 70.0152 23.7098L70.2736 24.1379C70.833 23.8004 71.5287 23.8446 71.9019 24.2207L72.2569 23.8685ZM70.0152 23.7098C69.4644 24.0422 69.0831 24.5455 68.6864 25.2868L69.1272 25.5228C69.5079 24.8114 69.8366 24.4016 70.2736 24.1379L70.0152 23.7098ZM68.6864 25.2868C68.5764 25.4924 68.3114 25.6671 67.9462 25.7222L68.0208 26.2166C68.4864 26.1463 68.9197 25.9106 69.1272 25.5228L68.6864 25.2868ZM67.9462 25.7222C67.7694 25.7489 67.5772 25.752 67.3166 25.7327L67.2797 26.2314C67.5618 26.2523 67.7942 26.2508 68.0208 26.2166L67.9462 25.7222ZM67.3189 25.7329L67.1861 25.7218L67.1445 26.2201L67.2773 26.2312L67.3189 25.7329ZM67.1906 25.7222L66.7734 25.6799L66.723 26.1774L67.1401 26.2197L67.1906 25.7222ZM66.7727 25.6799C64.538 25.4594 62.2532 25.7751 60.162 26.5932L60.3441 27.0589C62.3619 26.2695 64.5675 25.9648 66.7237 26.1774L66.7727 25.6799ZM60.162 26.5932C59.8236 26.7256 59.5723 26.867 59.4142 27.1593L59.8541 27.3971C59.9249 27.2661 60.0342 27.1801 60.3441 27.0589L60.162 26.5932ZM59.4142 27.1593C59.2918 27.3858 59.2954 27.6536 59.3879 27.8681C59.4819 28.086 59.6838 28.2792 59.975 28.2954L60.0026 27.7961C59.9415 27.7927 59.8836 27.7548 59.847 27.6701C59.809 27.582 59.8115 27.4758 59.8541 27.3971L59.4142 27.1593ZM59.975 28.2954C66.0096 28.6297 72.0691 28.5155 78.0869 27.9539L78.0404 27.4561C72.0473 28.0153 66.0126 28.1291 60.0026 27.7961L59.975 28.2954ZM78.087 27.9539L78.468 27.9181L78.4212 27.4203L78.0403 27.4561L78.087 27.9539ZM78.4617 27.9186L78.7398 27.8995L78.7056 27.4007L78.4275 27.4198L78.4617 27.9186ZM78.7412 27.8994C78.7685 27.8974 78.7912 27.8955 78.8187 27.8931L78.7743 27.395C78.7486 27.3973 78.7285 27.399 78.7042 27.4008L78.7412 27.8994ZM78.8213 27.8928L78.8926 27.8857L78.843 27.3882L78.7717 27.3953L78.8213 27.8928ZM78.8953 27.8854C79.1828 27.8535 79.4508 27.7866 79.6496 27.6345C79.8657 27.4691 79.9666 27.2301 79.9666 26.9389H79.4666C79.4666 27.1033 79.417 27.1829 79.3457 27.2374C79.2571 27.3053 79.1007 27.3596 78.8402 27.3885L78.8953 27.8854ZM79.9666 26.9389C79.9666 26.6793 79.9024 26.4468 79.6956 26.2884C79.5141 26.1494 79.2617 26.1025 78.9943 26.0753L78.9436 26.5727C79.2118 26.6 79.3331 26.6406 79.3916 26.6854C79.4247 26.7108 79.4666 26.7585 79.4666 26.9389H79.9666ZM78.9951 26.0753L78.8878 26.0641L78.8356 26.5613L78.9429 26.5726L78.9951 26.0753ZM78.8888 26.0642C78.6887 26.0423 78.6119 26.0275 78.5057 25.9946L78.3577 26.4722C78.5075 26.5186 78.6199 26.5378 78.8346 26.5612L78.8888 26.0642ZM78.5057 25.9946C78.2962 25.9297 78.0618 25.8278 77.8659 25.7243C77.7682 25.6727 77.6835 25.6225 77.6184 25.5785C77.5859 25.5565 77.5602 25.5373 77.541 25.5215C77.5315 25.5136 77.5245 25.5073 77.5195 25.5024C77.5144 25.4974 77.5127 25.4953 77.5132 25.496L77.1239 25.8097C77.1781 25.877 77.2605 25.94 77.3384 25.9927C77.4221 26.0493 77.5232 26.1087 77.6323 26.1664C77.8498 26.2813 78.113 26.3964 78.3577 26.4722L78.5057 25.9946ZM77.5132 25.496C77.3764 25.3261 77.3118 25.1699 77.2074 24.7033L76.7195 24.8125C76.8273 25.2944 76.9115 25.546 77.1239 25.8097L77.5132 25.496ZM77.2074 24.7034L77.1739 24.5534L76.6859 24.6624L76.7195 24.8124L77.2074 24.7034ZM77.1737 24.5522C77.0589 24.05 76.9595 23.7734 76.7142 23.4684L76.3246 23.7818C76.4997 23.9994 76.5778 24.1889 76.6862 24.6636L77.1737 24.5522ZM76.7142 23.4684C76.3463 23.011 75.7807 22.8239 75.2218 22.848C74.6633 22.8721 74.0861 23.1063 73.6593 23.5255L74.0097 23.8822C74.3448 23.5531 74.8033 23.3665 75.2433 23.3475C75.6831 23.3286 76.0789 23.4763 76.3246 23.7818L76.7142 23.4684ZM76.0566 23.9973C76.1932 24.1672 76.2577 24.3236 76.362 24.7893L76.8499 24.6801C76.7422 24.199 76.6581 23.9474 76.4462 23.684L76.0566 23.9973ZM76.362 24.7892L76.3955 24.9393L76.8835 24.8304L76.85 24.6802L76.362 24.7892ZM76.3958 24.9405C76.5107 25.4436 76.6101 25.7202 76.856 26.0254L77.2454 25.7118C77.07 25.494 76.9918 25.3046 76.8832 24.8292L76.3958 24.9405ZM76.856 26.0254C76.9751 26.1732 77.2061 26.3265 77.4424 26.4547C77.6894 26.5885 77.9817 26.7158 78.2559 26.8008L78.4039 26.3232C78.1646 26.249 77.9024 26.1353 77.6807 26.0151C77.4485 25.8892 77.2966 25.7754 77.2454 25.7118L76.856 26.0254ZM78.2582 26.8015L78.3053 26.8156L78.4488 26.3366L78.4016 26.3225L78.2582 26.8015ZM78.3078 26.8163C78.4493 26.8571 78.5675 26.8772 78.7549 26.8985L78.8113 26.4016C78.6384 26.382 78.5505 26.3659 78.4463 26.3359L78.3078 26.8163ZM78.7563 26.8986L78.9936 26.9241L79.047 26.427L78.8098 26.4015L78.7563 26.8986ZM78.9909 26.9238C79.0638 26.9324 79.1106 26.9404 79.1417 26.9482C79.1739 26.9564 79.1716 26.9603 79.1584 26.9503C79.1506 26.9443 79.1417 26.9355 79.1339 26.924C79.1264 26.9129 79.1227 26.9033 79.1212 26.8984C79.1194 26.8925 79.1226 26.8996 79.1226 26.9389H79.6226C79.6226 26.8384 79.6137 26.6686 79.4616 26.5527C79.3982 26.5043 79.3267 26.4793 79.2644 26.4635C79.2011 26.4475 79.1282 26.4366 79.0497 26.4273L78.9909 26.9238ZM79.1226 26.9389C79.1226 26.9648 79.1181 26.9705 79.1197 26.9673C79.122 26.963 79.1229 26.966 79.1089 26.9747C79.0692 26.9991 78.9762 27.0294 78.776 27.0493L78.8254 27.5469C79.0346 27.5261 79.2276 27.489 79.3715 27.4001C79.4493 27.3521 79.5164 27.287 79.562 27.2006C79.6069 27.1154 79.6226 27.0252 79.6226 26.9389H79.1226ZM78.7792 27.049L78.6746 27.058L78.7175 27.5562L78.8221 27.5472L78.7792 27.049ZM78.6791 27.0577L78.4172 27.0755L78.4511 27.5743L78.713 27.5565L78.6791 27.0577ZM78.415 27.0756C78.4017 27.0767 78.3892 27.0777 78.3768 27.0787L78.4197 27.5769C78.4304 27.576 78.4414 27.5751 78.4534 27.5742L78.415 27.0756ZM78.3756 27.0789L78.3417 27.0819L78.387 27.5799L78.421 27.5768L78.3756 27.0789ZM78.3405 27.0821C72.2552 27.6669 66.1256 27.7908 60.0217 27.4526L59.994 27.9518C66.1231 28.2915 72.2779 28.167 78.3883 27.5798L78.3405 27.0821ZM60.0217 27.4526C60.0954 27.4567 60.1364 27.4973 60.1478 27.5103C60.155 27.5186 60.1589 27.5252 60.1608 27.5287C60.1627 27.5323 60.1634 27.5345 60.1637 27.5353C60.1639 27.5361 60.1641 27.5365 60.164 27.5382C60.1639 27.5402 60.1631 27.5487 60.1567 27.5607L59.7168 27.3229C59.6489 27.4485 59.6556 27.5854 59.6863 27.684C59.7022 27.7351 59.7289 27.7906 59.7708 27.8388C59.8109 27.8847 59.8854 27.9458 59.994 27.9518L60.0217 27.4526ZM60.1567 27.5607C60.1729 27.5307 60.2172 27.4779 60.4695 27.3792L60.2873 26.9136C60.0351 27.0122 59.8275 27.1183 59.7168 27.3229L60.1567 27.5607ZM60.4695 27.3792C62.4027 26.6229 64.5136 26.3228 66.5812 26.5095L66.6261 26.0115C64.4815 25.8179 62.2928 26.129 60.2873 26.9136L60.4695 27.3792ZM66.579 26.5093L66.8366 26.5348L66.8859 26.0372L66.6282 26.0117L66.579 26.5093ZM66.8357 26.5347L67.0487 26.5565L67.0996 26.0591L66.8867 26.0373L66.8357 26.5347ZM67.0498 26.5566C67.1008 26.5616 67.1431 26.5654 67.1899 26.5693L67.2313 26.071C67.1871 26.0673 67.1471 26.0637 67.0985 26.059L67.0498 26.5566ZM67.1899 26.5693C67.5251 26.5972 67.799 26.598 68.0722 26.5567L67.9976 26.0623C67.7767 26.0957 67.5449 26.0971 67.2313 26.071L67.1899 26.5693ZM68.0722 26.5567C68.6411 26.4708 69.1677 26.1762 69.4305 25.685L68.9897 25.4491C68.8211 25.7642 68.4573 25.9929 67.9976 26.0623L68.0722 26.5567ZM69.4305 25.685C69.7855 25.0218 70.0811 24.6558 70.4513 24.4324L70.193 24.0043C69.7068 24.2977 69.3586 24.7598 68.9897 25.4491L69.4305 25.685ZM70.4513 24.4324C70.8896 24.168 71.4102 24.2135 71.6578 24.463L72.0127 24.1108C71.5557 23.6502 70.7652 23.6591 70.193 24.0043L70.4513 24.4324ZM71.6555 24.4606L71.676 24.4819L72.0356 24.1344L72.015 24.1131L71.6555 24.4606ZM71.6736 24.4794C71.6864 24.4929 71.7001 24.5085 71.719 24.5311L72.1026 24.2103C72.0795 24.1827 72.0591 24.1595 72.038 24.1369L71.6736 24.4794ZM71.717 24.5287L71.783 24.6096L72.1706 24.2937L72.1046 24.2127L71.717 24.5287ZM71.782 24.6084C71.9342 24.7975 72.0374 24.9093 72.211 25.0065L72.4552 24.5702C72.3686 24.5217 72.3146 24.4727 72.1716 24.295L71.782 24.6084ZM72.211 25.0065C72.6461 25.25 73.1716 25.1234 73.5512 24.8369L73.25 24.4378C72.9698 24.6493 72.6608 24.6853 72.4552 24.5702L72.211 25.0065ZM73.5512 24.8369C73.6901 24.7321 73.7911 24.6331 73.9434 24.464L73.5719 24.1294C73.4302 24.2866 73.3533 24.3599 73.25 24.4378L73.5512 24.8369ZM73.9444 24.4629L74.1278 24.2568L73.7543 23.9244L73.5709 24.1305L73.9444 24.4629ZM74.1266 24.2581C74.1773 24.2019 74.2115 24.1661 74.2507 24.1276L73.9004 23.7709C73.8524 23.818 73.8112 23.8614 73.7555 23.923L74.1266 24.2581ZM74.2507 24.1276C74.52 23.8632 74.8879 23.7128 75.2369 23.6929C75.5878 23.6729 75.8854 23.7845 76.0566 23.9973L76.4462 23.684C76.1459 23.3107 75.6703 23.1674 75.2085 23.1937C74.7448 23.2201 74.2606 23.4172 73.9004 23.7709L74.2507 24.1276Z" fill="black"/>
<path fill-rule="evenodd" clip-rule="evenodd" d="M51.9416 17.2787C51.913 15.6456 51.7585 13.7889 52.8924 12.6133C52.6534 15.329 52.4144 18.0448 52.1754 20.7606C52.5635 20.9533 51.9847 21.2756 51.634 21.282C50.3774 21.3053 51.9703 18.9118 51.9416 17.2787Z" fill="black"/>
</svg>
