<svg width="48" height="48" viewBox="0 0 48 48" fill="none" xmlns="http://www.w3.org/2000/svg">
<circle cx="24" cy="24" r="24" fill="white"/>
<path d="M21.2577 8.1587C22.2708 9.11692 22.962 10.4149 23.1315 11.8969C23.5189 15.2842 21.0342 18.3503 17.5817 18.7452C15.4415 18.9899 13.4319 18.1508 12.121 16.6706C11.6385 18.2539 11.4657 19.9599 11.6657 21.7092C12.4469 28.5397 18.6174 33.4436 25.4479 32.6624C32.2784 31.8812 37.1823 25.7107 36.4011 18.8803C35.6199 12.0498 29.4494 7.14585 22.6189 7.92704C22.156 7.97999 21.7018 8.0577 21.2577 8.1587Z" fill="#A077FF"/>
<path d="M23.1315 11.8969C22.962 10.4149 22.2708 9.11689 21.2577 8.15867C21.7018 8.05767 22.156 7.97996 22.6189 7.92701C24.3016 7.73457 25.9441 7.88713 27.476 8.32849C30.4835 9.81857 32.6972 12.7564 33.107 16.3392C33.749 21.9533 29.7184 27.0249 24.1043 27.667C18.4902 28.3091 13.4186 24.2785 12.7765 18.6644C12.7222 18.1896 12.7013 17.7187 12.712 17.2541C13.9979 18.3647 15.7416 18.9556 17.5817 18.7451C21.0342 18.3503 23.5189 15.2842 23.1315 11.8969Z" fill="#5341AF"/>
<path d="M21.3255 8.22371C22.3016 9.17525 22.9658 10.4481 23.1315 11.8969C23.5189 15.2842 21.0342 18.3503 17.5817 18.7452C15.787 18.9504 14.084 18.3934 12.808 17.3353C13.3734 21.7098 17.3495 24.8336 21.7466 24.3307C26.1838 23.8233 29.3695 19.8148 28.862 15.3775C28.4093 11.4188 25.1698 8.45623 21.3255 8.22371Z" fill="#222151"/>
<path d="M15.5654 39.7989L14.5704 36.5567H14.5449C14.5807 37.2163 14.5987 37.6563 14.5987 37.8768V39.7989H13.8157V35.6663H15.0085L15.9865 38.8265H16.0035L17.0409 35.6663H18.2337V39.7989H17.4168V37.8428C17.4168 37.7505 17.4177 37.644 17.4196 37.5234C17.4234 37.4028 17.4366 37.0825 17.4592 36.5624H17.4338L16.3681 39.7989H15.5654Z" fill="#222151"/>
<path d="M21.2158 39.7989L21.049 39.3692H21.0264C20.8813 39.552 20.7315 39.6792 20.577 39.7508C20.4243 39.8205 20.2246 39.8554 19.9777 39.8554C19.6743 39.8554 19.435 39.7687 19.2598 39.5954C19.0864 39.422 18.9997 39.1751 18.9997 38.8548C18.9997 38.5194 19.1166 38.2725 19.3502 38.1142C19.5858 37.954 19.94 37.8655 20.413 37.8485L20.9614 37.8315V37.693C20.9614 37.3727 20.7975 37.2125 20.4696 37.2125C20.2171 37.2125 19.9203 37.2888 19.5792 37.4415L19.2937 36.8592C19.6574 36.6689 20.0606 36.5737 20.5035 36.5737C20.9275 36.5737 21.2525 36.666 21.4787 36.8507C21.7048 37.0354 21.8179 37.3161 21.8179 37.693V39.7989H21.2158ZM20.9614 38.3347L20.6279 38.346C20.3772 38.3535 20.1907 38.3988 20.0682 38.4817C19.9457 38.5646 19.8845 38.6908 19.8845 38.8604C19.8845 39.1035 20.0239 39.2251 20.3028 39.2251C20.5025 39.2251 20.6618 39.1676 20.7805 39.0526C20.9011 38.9377 20.9614 38.7851 20.9614 38.5947V38.3347Z" fill="#222151"/>
<path d="M24.4721 36.5793C24.5889 36.5793 24.686 36.5878 24.7632 36.6048L24.6982 37.4132C24.6285 37.3944 24.5437 37.3849 24.4438 37.3849C24.1687 37.3849 23.9539 37.4556 23.7993 37.5969C23.6467 37.7383 23.5704 37.9361 23.5704 38.1905V39.7989H22.7083V36.6387H23.3612L23.4884 37.1701H23.5308C23.6288 36.993 23.7607 36.8507 23.9265 36.7433C24.0943 36.634 24.2761 36.5793 24.4721 36.5793Z" fill="#222151"/>
<path d="M26.6684 39.1685C26.8191 39.1685 27 39.1356 27.2111 39.0696V39.7113C26.9963 39.8074 26.7324 39.8554 26.4196 39.8554C26.0748 39.8554 25.8232 39.7687 25.6649 39.5954C25.5085 39.4201 25.4303 39.1582 25.4303 38.8096V37.286H25.0176V36.9214L25.4925 36.633L25.7412 35.966H26.2924V36.6387H27.1772V37.286H26.2924V38.8096C26.2924 38.932 26.3264 39.0225 26.3942 39.0809C26.4639 39.1393 26.5553 39.1685 26.6684 39.1685Z" fill="#222151"/>
<path d="M30.7698 39.7989H29.9077V37.9531C29.9077 37.4971 29.7381 37.269 29.3989 37.269C29.1577 37.269 28.9834 37.351 28.876 37.515C28.7686 37.6789 28.7149 37.9446 28.7149 38.3121V39.7989H27.8527V35.4006H28.7149V36.2967C28.7149 36.3664 28.7083 36.5303 28.6951 36.7885L28.6753 37.0429H28.7205C28.9127 36.7339 29.218 36.5793 29.6363 36.5793C30.0076 36.5793 30.2893 36.6792 30.4815 36.879C30.6737 37.0787 30.7698 37.3651 30.7698 37.7383V39.7989Z" fill="#222151"/>
<path d="M33.6643 39.7989L33.4975 39.3692H33.4749C33.3298 39.552 33.18 39.6792 33.0255 39.7508C32.8728 39.8205 32.6731 39.8554 32.4262 39.8554C32.1228 39.8554 31.8835 39.7687 31.7083 39.5954C31.5349 39.422 31.4482 39.1751 31.4482 38.8548C31.4482 38.5194 31.565 38.2725 31.7987 38.1142C32.0343 37.954 32.3885 37.8655 32.8615 37.8485L33.4099 37.8315V37.693C33.4099 37.3727 33.246 37.2125 32.9181 37.2125C32.6655 37.2125 32.3688 37.2888 32.0277 37.4415L31.7422 36.8592C32.1059 36.6689 32.5091 36.5737 32.952 36.5737C33.376 36.5737 33.701 36.666 33.9272 36.8507C34.1533 37.0354 34.2664 37.3161 34.2664 37.693V39.7989H33.6643ZM33.4099 38.3347L33.0764 38.346C32.8257 38.3535 32.6392 38.3988 32.5167 38.4817C32.3942 38.5646 32.3329 38.6908 32.3329 38.8604C32.3329 39.1035 32.4724 39.2251 32.7513 39.2251C32.951 39.2251 33.1103 39.1676 33.229 39.0526C33.3496 38.9377 33.4099 38.7851 33.4099 38.5947V38.3347Z" fill="#222151"/>
</svg>
