<svg width="20" height="20" viewBox="0 0 20 20" fill="none" xmlns="http://www.w3.org/2000/svg">
<g clip-path="url(#clip0)">
<path d="M10.0001 20.0001C4.4772 20.0001 0 15.523 0 10.0001C0 4.47727 4.4772 0.00012207 10.0001 0.00012207C15.523 0.00012207 20.0002 4.47727 20.0002 10.0001C19.9941 15.5205 15.5205 19.9941 10.0001 20.0001ZM2.00002 10.1721C2.04734 14.5734 5.64117 18.1097 10.0426 18.0861C14.4441 18.0623 17.9997 14.4876 17.9997 10.0861C17.9997 5.68463 14.4441 2.1099 10.0426 2.08612C5.64117 2.06258 2.04734 5.59888 2.00002 10.0001V10.1721ZM12.0001 14.0001C12.0001 14.5524 11.5524 15.0001 11.0001 15.0001H10.5001C9.67167 15.0001 9.00009 14.3285 9.00009 13.5001V11.5001C9.00009 11.224 8.77623 11.0001 8.50009 11.0001C8.22394 11.0001 8.00008 10.7763 8.00008 10.5001V10.0001C8.00008 9.44784 8.4478 9.00012 9.00008 9.00012H9.5001C10.3285 9.00012 11.0001 9.6717 11.0001 10.5001V12.5001C11.0001 12.7763 11.224 13.0001 11.5001 13.0001C11.7763 13.0001 12.0001 13.224 12.0001 13.5001V14.0001ZM11.0001 6.00012C11.0001 6.55241 10.5524 7.00012 10.0001 7.00012C9.44782 7.00012 9.00009 6.55241 9.00009 6.00012C9.00009 5.44784 9.44782 5.00012 10.0001 5.00012C10.5524 5.00012 11.0001 5.44784 11.0001 6.00012Z" fill="#5341AF"/>
</g>
<defs>
<clipPath id="clip0">
<rect width="20" height="20" fill="white"/>
</clipPath>
</defs>
</svg>
