<svg width="20" height="20" viewBox="0 0 20 20" fill="none" xmlns="http://www.w3.org/2000/svg">
<g clip-path="url(#clip0)">
<path d="M9.99999 19.9999C4.47966 19.9938 0.00606237 15.5202 0 9.99989V9.79989C0.109931 4.30442 4.63458 -0.0721477 10.1307 0.000776146C15.6267 0.0737 20.0337 4.56878 19.9978 10.0652C19.9619 15.5617 15.4966 19.9988 9.99999 19.9999ZM9.98399 17.9999H9.99999C14.4167 17.9955 17.9942 14.4126 17.992 9.99589C17.9898 5.57918 14.4087 1.9999 9.99199 1.9999C5.57528 1.9999 1.99421 5.57918 1.992 9.99589C1.98979 14.4126 5.56728 17.9955 9.98399 17.9999ZM11 14.9999C11 15.5522 10.5523 15.9999 9.99999 15.9999C9.44771 15.9999 8.99999 15.5522 8.99999 14.9999C8.99999 14.4476 9.44771 13.9999 9.99999 13.9999C10.5523 13.9999 11 14.4476 11 14.9999ZM11.2326 12.0639C11.0193 12.5686 10.5796 12.9999 10.0316 12.9999C9.45785 12.9999 8.9731 12.533 9.12269 11.9791C9.36422 11.0847 9.94769 10.3039 10.77 9.82189C11.43 9.31589 12 8.87989 12 7.99989C12 6.89532 11.1046 5.99989 9.99999 5.99989C9.2429 5.99989 8.58406 6.42056 8.24446 7.04092C7.97927 7.52537 7.55228 7.99989 6.99999 7.99989H6.08999C6.04029 7.99989 6 7.9596 6 7.90989C6.01607 6.48083 6.79332 5.1689 8.03896 4.46829C9.28461 3.76768 10.8094 3.78484 12.039 4.51329C13.2685 5.24174 14.0161 6.57083 14 7.99989C13.9284 9.07891 13.3497 10.0601 12.44 10.6449C11.895 10.987 11.4771 11.4852 11.2326 12.0639Z" fill="#5341AF"/>
</g>
<defs>
<clipPath id="clip0">
<rect width="20" height="20" fill="white"/>
</clipPath>
</defs>
</svg>
