<svg width="22" height="20" viewBox="0 0 22 20" fill="none" xmlns="http://www.w3.org/2000/svg">
<path d="M1.52182 10.3152C0.960232 10.3152 0.678987 9.63619 1.07609 9.23909L10.0001 0.315065C10.4203 -0.105022 11.1015 -0.105022 11.5217 0.315065L20.4457 9.23909C20.8428 9.63619 20.5616 10.3152 20 10.3152C19.6519 10.3152 19.3696 10.5974 19.3696 10.9455V18.9239C19.3696 19.5182 18.8879 20 18.2935 20H16.6794C14.5993 20 12.9131 18.3138 12.9131 16.2337V14.6195C12.9131 13.4309 11.9495 12.4674 10.7609 12.4674C9.57229 12.4674 8.60873 13.4309 8.60873 14.6195V16.2337C8.60873 18.3138 6.92249 20 4.84241 20H3.22827C2.63396 20 2.15218 19.5182 2.15218 18.9239V10.9455C2.15218 10.5974 1.86996 10.3152 1.52182 10.3152Z" fill="#5341AF"/>
</svg>
